<svg version="1.1" id="Layer_1" xmlns="http://www.w3.org/2000/svg" xmlns:xlink="http://www.w3.org/1999/xlink" x="0px" y="0px"
	 width="100%" viewBox="0 0 1591 656" enable-background="new 0 0 1591 656" xml:space="preserve">
<path fill="#FFF" opacity="1.000000" stroke="#000000" 
	d="
M1063.000000,657.000000 
	C708.705933,657.000000 354.911926,657.000000 1.058936,657.000000 
	C1.058936,438.396912 1.058936,219.793823 1.058936,1.095359 
	C531.210815,1.095359 1061.421753,1.095359 1591.816284,1.095359 
	C1591.816284,219.666550 1591.816284,438.333252 1591.816284,657.000000 
	C1415.793579,657.000000 1239.646729,657.000000 1063.000000,657.000000 
M498.359131,297.670227 
	C498.605835,297.487396 498.803101,297.261414 498.984161,297.014648 
	C498.984161,297.014648 498.996490,296.976532 499.679718,296.990021 
	C501.829285,294.280487 504.249023,291.741272 506.082947,288.832703 
	C515.394531,274.064514 512.173828,252.701111 498.950806,241.281082 
	C498.726410,241.021286 498.442902,240.902359 497.916290,240.450073 
	C497.617432,240.315842 497.318573,240.181610 496.719635,239.449097 
	C494.820526,238.284149 492.921417,237.119202 490.611267,235.392609 
	C487.741943,234.319885 484.872620,233.247177 481.333710,231.839325 
	C479.868988,231.628006 478.404236,231.416672 476.058929,231.003769 
	C472.036407,231.355820 468.013855,231.707855 463.279114,231.997375 
	C462.169861,232.407471 461.060638,232.817566 459.380371,233.195374 
	C459.095917,233.429688 458.811493,233.664001 458.192963,233.807709 
	C458.192963,233.807709 457.984772,234.084290 457.366486,234.094482 
	C457.070160,234.366165 456.773834,234.637863 456.182373,234.809448 
	C456.182373,234.809448 456.002075,235.063721 455.372101,235.086426 
	C454.546539,235.700562 453.721008,236.314697 452.981171,236.981705 
	C452.981171,236.981705 452.932526,236.893524 452.257080,237.013046 
	C450.173859,238.683014 448.090637,240.352982 445.379822,242.259140 
	C444.411346,243.392639 443.385284,244.482285 442.483032,245.666260 
	C429.480988,262.727814 431.958344,286.947449 447.952271,298.870270 
	C447.952271,298.870270 448.258850,299.111816 448.258850,299.111816 
	C448.258850,299.111816 448.649109,299.106018 448.904541,299.640717 
	C449.260651,299.785217 449.616760,299.929718 450.285889,300.650696 
	C451.795715,301.520966 453.305511,302.391266 454.873627,303.146149 
	C454.873627,303.146149 454.744385,303.143677 454.963776,303.660370 
	C455.312347,303.755341 455.660919,303.850311 456.439240,304.480347 
	C458.161987,305.078735 459.884735,305.677155 462.237823,306.772278 
	C466.809448,307.116730 471.381042,307.461182 476.721161,307.954742 
	C478.468811,307.575714 480.216461,307.196655 482.683197,306.901093 
	C484.806885,305.958221 486.930603,305.015320 489.749054,304.008789 
	C492.171356,302.349091 494.593658,300.689392 497.560577,298.924957 
	C497.690369,298.612610 497.820160,298.300232 498.010498,297.963684 
	C498.010498,297.963684 497.974457,297.909332 498.359131,297.670227 
M290.978363,421.719696 
	C291.335480,421.917480 291.692566,422.115265 292.207184,422.647675 
	C292.207184,422.647675 292.543732,422.801025 292.772827,423.394043 
	C299.469116,429.663574 306.165436,435.933075 312.905640,442.092041 
	C312.905640,442.092041 312.786804,442.087860 312.958069,442.650635 
	C313.282166,442.850769 313.606232,443.050873 314.164581,443.862732 
	C320.707245,449.997986 327.249908,456.133270 333.843384,462.154694 
	C333.843384,462.154694 333.727966,462.201721 333.937592,462.800568 
	C334.582123,463.328918 335.226654,463.857300 335.632416,464.869537 
	C335.087891,465.559113 334.543335,466.248657 333.166656,466.819031 
	C322.447540,469.478912 311.728424,472.138824 300.176361,474.782104 
	C292.122009,476.774902 284.067657,478.767670 275.163208,480.741028 
	C268.546661,482.257812 261.817657,483.404968 255.339294,485.375977 
	C245.011917,488.518005 239.442245,498.220825 241.938416,507.750702 
	C244.564392,517.776245 254.059952,523.889221 264.452881,521.878723 
	C270.130005,520.780518 275.688904,519.071106 282.134857,517.591919 
	C289.088440,515.853210 296.042023,514.114502 303.724243,512.451904 
	C305.794495,511.942657 307.872864,511.463959 309.933624,510.918762 
	C318.442017,508.667725 326.945099,506.396484 336.176819,504.339905 
	C338.122833,503.854004 340.068878,503.368073 342.512665,502.977234 
	C342.661285,502.896942 342.809906,502.816620 343.532928,502.804779 
	C344.022736,502.533447 344.512512,502.262115 345.741119,502.060516 
	C346.659637,501.753754 347.578186,501.447021 348.775269,501.278046 
	C348.775269,501.278046 348.994415,501.057678 349.742279,501.148682 
	C351.171509,500.725555 352.600739,500.302429 354.723022,499.979706 
	C355.347107,499.717438 355.971161,499.455139 357.076477,499.370758 
	C357.386597,499.242676 357.696686,499.114594 358.677856,499.058228 
	C359.030884,498.809814 359.383911,498.561371 360.314972,498.495178 
	C360.883118,498.304901 361.451263,498.114594 362.729370,498.031342 
	C363.369324,497.764557 364.009247,497.497772 365.244446,497.424927 
	C365.825928,497.220978 366.407410,497.016998 367.784973,496.876831 
	C371.319672,495.996521 374.861572,495.143982 378.387817,494.231018 
	C391.821320,490.753174 397.910919,477.792664 390.650055,466.005493 
	C382.763611,453.202820 373.678772,441.138336 365.041687,428.199707 
	C364.674652,427.804474 364.307587,427.409210 363.869476,426.404449 
	C363.233368,425.646729 362.597260,424.889008 361.831177,423.445770 
	C358.951355,419.432922 356.071564,415.420074 353.092682,410.800110 
	C352.108734,409.515320 351.124756,408.230530 350.044708,406.280457 
	C349.078156,405.060608 348.111603,403.840759 347.072662,402.100891 
	C346.721039,401.730530 346.369415,401.360168 345.986084,400.358643 
	C345.333252,399.563049 344.680450,398.767426 344.000000,397.999512 
	C344.000000,397.999512 344.031067,397.977112 343.949036,397.413452 
	C343.633514,397.275787 343.317963,397.138123 342.479126,396.520752 
	C343.015930,395.265594 343.210205,393.583466 344.149475,392.830048 
	C347.985535,389.753113 352.049286,386.959991 356.681152,383.849335 
	C365.849121,377.257477 375.017120,370.665649 384.859985,363.977539 
	C390.137451,360.309845 395.427185,356.659637 400.686981,352.966766 
	C403.148102,351.238831 405.551331,349.428467 408.759399,347.657745 
	C409.703857,348.918579 410.927704,350.057068 411.542999,351.462067 
	C413.867798,356.770477 415.823792,362.243866 418.237701,367.508881 
	C421.571106,374.779541 425.194000,381.917450 428.872498,389.675690 
	C429.199036,389.869202 429.525574,390.062714 429.825134,390.146423 
	C429.825134,390.146423 429.744049,390.225220 429.956482,390.874268 
	C432.996735,392.470612 435.927582,395.113129 439.100128,395.445007 
	C445.664825,396.131744 452.358093,395.589020 459.870636,395.799927 
	C462.290039,395.740204 464.709442,395.680481 468.006775,395.880951 
	C482.167816,395.895477 496.333313,396.107971 510.486847,395.789062 
	C514.149475,395.706573 518.071350,394.537933 521.356201,392.856476 
	C528.527954,389.185394 531.516846,379.319519 528.736755,370.485992 
	C526.525391,363.459473 518.484985,358.204498 510.032654,358.666046 
	C500.684082,358.734344 491.335510,358.802673 481.068970,358.672699 
	C472.682251,358.587646 464.295502,358.502594 455.523743,358.098480 
	C455.357147,358.104645 455.190582,358.110809 454.539246,357.573761 
	C449.426666,345.400391 444.537079,333.125793 439.084076,321.106842 
	C437.097046,316.727203 433.768616,312.956207 430.898010,308.253143 
	C422.912659,298.877563 414.927338,289.501984 406.744720,279.473999 
	C398.135468,269.328094 389.526215,259.182220 380.808319,248.550629 
	C380.641907,248.231079 380.380737,248.043198 379.925934,247.406601 
	C379.607758,247.196167 379.289551,246.985733 378.774506,246.158813 
	C376.578247,243.484390 374.509796,240.691223 372.159271,238.160080 
	C367.159088,232.775620 362.012238,227.527344 356.488434,221.631973 
	C353.650452,220.785736 350.827820,219.277618 347.971741,219.211334 
	C337.337708,218.964569 326.692719,219.191437 315.284760,219.078583 
	C314.507050,219.131287 313.729370,219.184006 312.185730,219.055832 
	C311.143433,219.114456 310.101166,219.173080 308.362488,219.074371 
	C307.892273,219.126099 307.422028,219.177841 306.180786,219.050644 
	C305.132172,219.110657 304.083527,219.170654 302.114044,219.076904 
	C298.052917,219.135010 293.991791,219.193115 289.016754,219.080948 
	C284.366394,219.070480 279.671722,218.663773 275.079865,219.176819 
	C271.502136,219.576553 267.641174,220.447662 264.626526,222.288864 
	C257.104309,226.883041 254.487839,233.968781 256.480530,241.921356 
	C258.447449,249.771103 264.994720,255.672012 273.679443,256.167389 
	C282.099884,256.647675 290.575439,256.162140 299.926361,256.370087 
	C305.275909,256.288605 310.625427,256.207123 316.886627,256.381348 
	C323.573334,256.275513 330.260040,256.169647 337.069977,256.257996 
	C337.069977,256.257996 337.362091,256.083282 338.023529,256.554260 
	C339.701294,258.101624 341.499634,259.538818 343.033844,261.217377 
	C347.370178,265.961700 351.598267,270.805023 356.008270,276.275452 
	C358.649872,278.891907 359.042328,281.369873 355.686676,283.774872 
	C354.945526,284.306030 354.463165,285.198334 353.391388,286.028198 
	C353.077271,286.200409 352.921265,286.465607 352.310364,286.994843 
	C351.746490,287.614563 351.182587,288.234253 350.022034,289.107635 
	C345.343262,293.728577 340.664490,298.349487 335.356567,303.204773 
	C329.231689,309.116547 323.106842,315.028290 316.377991,321.142761 
	C315.400635,322.170288 314.423309,323.197815 313.371124,324.360565 
	C313.371124,324.360565 313.226624,324.415405 312.654053,324.669708 
	C306.395538,330.761627 300.137024,336.853546 293.247284,343.154053 
	C287.741394,348.236359 282.512268,353.664856 276.674164,358.331543 
	C262.936127,369.313141 260.416992,390.126617 272.059906,403.237762 
	C277.443237,409.300018 283.779205,414.516327 289.888611,420.667419 
	C290.218658,420.856415 290.548676,421.045380 290.900635,421.107269 
	C290.900635,421.107269 290.773895,421.131104 290.978363,421.719696 
M155.873169,462.863831 
	C155.873169,462.863831 155.807281,462.727936 155.196014,462.889984 
	C154.302582,463.732117 153.409149,464.574249 152.522995,465.523224 
	C152.522995,465.523224 152.423935,465.482544 151.837082,465.766388 
	C147.217316,469.839752 142.597534,473.913086 137.424362,478.121857 
	C136.921570,478.669373 136.418777,479.216888 135.324509,479.929596 
	C135.072189,480.242981 134.819855,480.556366 134.059143,481.264862 
	C132.704742,482.698608 131.350327,484.132324 129.383224,485.749939 
	C124.723679,489.684113 119.543457,493.154816 115.529938,497.664001 
	C109.895615,503.994202 109.919701,514.105652 114.575981,520.920227 
	C119.492401,528.115540 127.268097,531.293762 135.006805,529.508301 
	C135.335190,529.362671 135.663574,529.217041 136.688278,529.159424 
	C137.501526,528.790100 138.314774,528.420776 139.704956,528.047913 
	C140.142868,527.713623 140.580780,527.379333 141.715057,526.976257 
	C146.832550,522.998474 151.950043,519.020691 157.002975,515.006165 
	C157.002975,515.006165 157.040024,515.070496 157.628082,514.932617 
	C158.359741,514.273499 159.091385,513.614319 160.507141,512.836853 
	C163.680008,510.245300 166.852859,507.653748 170.691101,504.895844 
	C174.795349,501.591064 178.899597,498.286285 183.667389,494.835297 
	C188.935074,490.636749 194.202774,486.438232 200.098892,482.061859 
	C203.755569,479.094543 207.412247,476.127228 211.743408,473.002594 
	C218.343567,467.739258 224.943726,462.475922 232.167099,457.074219 
	C235.109116,454.684784 238.051117,452.295349 241.485825,449.820404 
	C241.812439,449.659119 242.001709,449.398193 242.583450,448.888550 
	C242.703201,448.749603 242.822968,448.610626 243.550537,448.312347 
	C251.253983,442.381287 258.957428,436.450195 267.274445,430.046692 
	C254.888367,420.704071 246.831619,409.248047 242.954071,394.358459 
	C242.830109,393.915100 242.706146,393.471710 242.750259,392.325226 
	C242.519318,391.269745 242.288376,390.214233 241.914368,388.504883 
	C240.658264,389.621429 239.871643,390.320679 238.445190,391.238068 
	C235.964737,393.497101 233.484283,395.756104 230.494568,398.129822 
	C230.312073,398.414764 230.129578,398.699738 229.986740,398.994690 
	C229.986740,398.994690 229.972397,398.955017 229.313293,399.108765 
	C223.265457,404.416656 217.217606,409.724548 210.510651,415.234772 
	C206.066879,419.173096 201.623108,423.111450 196.532791,427.270660 
	C191.321442,431.828888 186.110077,436.387115 180.250870,441.120209 
	C176.777008,444.259125 173.303146,447.398041 169.182312,450.800232 
	C165.097336,454.455505 161.012360,458.110748 156.362747,461.933411 
	C156.149368,462.247589 155.936005,462.561798 155.873169,462.863831 
M155.117722,333.021698 
	C151.731964,333.074707 148.346207,333.127716 144.048859,333.028534 
	C141.242645,333.017090 138.436249,332.978455 135.630280,332.999634 
	C128.949341,333.050018 123.890053,336.779419 122.909187,342.342529 
	C121.793182,348.672089 124.716408,353.357391 131.372696,356.206116 
	C131.372696,356.206116 131.632690,356.276001 131.632690,356.276001 
	C131.632690,356.276001 131.676865,356.069977 132.595230,356.241547 
	C135.616898,356.216980 138.638580,356.192413 142.456436,356.510284 
	C151.306244,356.398468 160.156067,356.286621 169.877502,356.495514 
	C174.252060,356.381226 178.626602,356.266937 183.871948,356.490845 
	C188.882706,356.379944 193.893478,356.269043 199.790955,356.511597 
	C204.177444,356.393768 208.563919,356.275970 213.771042,356.506348 
	C215.835587,356.434326 217.900116,356.362335 220.820816,356.657806 
	C224.301422,356.613617 227.838791,356.950775 231.250397,356.442993 
	C237.641251,355.491791 241.775055,350.332977 241.515320,344.324768 
	C241.243591,338.038849 236.472443,333.183868 229.921646,332.969971 
	C224.619431,332.796875 219.302994,333.059082 213.064804,333.021210 
	C208.365387,333.075104 203.665955,333.128967 198.044800,333.033051 
	C191.709763,333.079193 185.374725,333.125366 178.122650,333.023163 
	C174.426804,333.072845 170.730942,333.122559 166.123642,333.022186 
	C162.758820,333.071136 159.393997,333.120117 155.117722,333.021698 
M203.842255,312.637390 
	C207.890213,312.535217 211.938187,312.433044 216.863892,312.648834 
	C221.242569,312.547241 225.621262,312.445679 230.881683,312.652069 
	C235.590073,312.541443 240.298447,312.430847 245.886246,312.638824 
	C251.236710,312.558105 256.587189,312.477386 262.823273,312.718231 
	C266.463745,312.738129 270.114136,312.938507 273.742554,312.738922 
	C280.539825,312.365051 285.445892,307.273834 285.391418,300.933105 
	C285.333740,294.220398 280.349731,289.211334 273.362671,289.055328 
	C269.567322,288.970581 265.765228,289.186066 261.045410,289.118530 
	C255.697159,289.173981 250.348907,289.229431 244.082230,289.108002 
	C239.387695,289.161957 234.693176,289.215912 229.084030,289.102020 
	C225.051590,289.161346 221.019135,289.220673 216.071594,289.114227 
	C211.711533,289.168884 207.351471,289.223541 202.077118,289.107208 
	C197.712250,289.162231 193.347382,289.217255 188.150162,289.130676 
	C184.425980,289.412354 180.595001,289.250702 177.010925,290.113983 
	C174.065170,290.823578 170.598618,292.075623 168.784119,294.265076 
	C163.539536,300.593414 166.987503,309.235840 175.432022,312.354431 
	C175.432022,312.354431 175.716568,312.191711 176.642349,312.489929 
	C181.408371,312.432098 186.174377,312.374268 191.575195,312.559753 
	C191.786606,312.478088 191.998001,312.396454 192.500977,312.535645 
	C192.500977,312.535645 192.791550,312.313538 193.679306,312.629181 
	C196.771576,312.528656 199.863861,312.428131 203.842255,312.637390 
M153.887909,400.525177 
	C159.580521,400.431213 165.273117,400.337280 171.833145,400.610931 
	C177.146347,400.539062 182.530731,400.983459 187.754547,400.263275 
	C194.135315,399.383606 198.085251,393.846252 197.607422,387.845795 
	C197.120453,381.730652 192.448669,377.190491 185.987427,377.014771 
	C180.009583,376.852173 174.020950,377.087006 167.103241,377.021606 
	C162.083755,377.073822 157.064255,377.126038 151.111816,377.030426 
	C145.755936,377.078827 140.400055,377.127197 134.112259,377.029358 
	C128.084595,377.076172 122.056931,377.122986 115.101105,377.024597 
	C110.389290,377.073700 105.677483,377.122803 100.052795,377.023621 
	C96.903732,377.012939 93.750885,376.898834 90.606407,377.013733 
	C84.634895,377.231934 79.822052,381.232941 78.958084,386.538544 
	C77.995071,392.452393 80.954292,398.275146 86.915657,399.704010 
	C91.372665,400.772308 96.252960,400.074554 101.834167,400.483185 
	C106.886673,400.381226 111.939171,400.279266 117.869179,400.507904 
	C123.890923,400.392487 129.912659,400.277069 136.820984,400.503357 
	C142.221878,400.394012 147.622757,400.284637 153.887909,400.525177 
M688.372864,359.976135 
	C698.274780,365.417999 705.128723,372.998230 703.799255,385.062775 
	C702.512268,396.742493 694.509644,403.324829 684.137268,406.703003 
	C669.038513,411.620422 654.138184,410.565094 640.429993,402.041016 
	C634.243652,398.194183 628.521484,393.552063 622.839600,388.960236 
	C619.219666,386.034790 616.224670,386.339355 613.285461,389.567780 
	C610.258545,392.892426 607.449463,396.419556 604.353760,399.676178 
	C601.594727,402.578552 601.524109,405.146759 604.649292,407.698242 
	C610.957520,412.848450 616.888794,418.575928 623.660400,423.022491 
	C650.564697,440.689087 687.938782,439.317719 711.709290,420.236542 
	C737.036865,399.905548 737.381409,365.303711 711.664551,346.107758 
	C702.444519,339.225616 691.616577,334.367981 681.188843,329.268585 
	C669.698364,323.649567 657.571594,319.308044 646.198608,313.479950 
	C637.365356,308.953339 631.969482,301.321198 633.035950,290.723907 
	C634.025696,280.888672 639.741028,274.230804 648.522766,270.247742 
	C657.964844,265.965210 667.885681,265.722839 677.846252,267.957428 
	C688.334961,270.310577 697.085205,276.054840 705.297607,282.741241 
	C710.927429,287.324951 712.507263,287.103638 717.022949,281.278473 
	C719.267456,278.383087 721.386230,275.386475 723.709656,272.557068 
	C726.617920,269.015686 726.335144,265.836182 722.750366,263.117584 
	C718.114441,259.601868 713.622986,255.772995 708.591614,252.921921 
	C683.313782,238.598145 657.249451,235.910202 630.969727,249.808990 
	C605.860107,263.088867 598.075134,297.045044 614.608826,319.576782 
	C621.786072,329.357727 631.832947,335.819153 642.656677,340.715363 
	C657.492432,347.426514 672.674011,353.373260 688.372864,359.976135 
M1242.500000,268.605560 
	C1248.999390,268.602722 1255.499023,268.618256 1261.998291,268.592346 
	C1269.653076,268.561829 1270.374146,267.853668 1270.402222,260.431763 
	C1270.415405,256.932129 1270.405884,253.432266 1270.380615,249.932693 
	C1270.328857,242.750198 1269.771484,242.164780 1262.737305,242.162277 
	C1226.906738,242.149536 1191.076294,242.150864 1155.245728,242.148636 
	C1146.766968,242.148117 1146.634155,242.244720 1146.632324,250.841629 
	C1146.620117,307.503876 1146.626099,364.166138 1146.628174,420.828369 
	C1146.628296,421.994720 1146.599854,423.164581 1146.676270,424.326813 
	C1147.093750,430.668671 1150.197754,433.700378 1156.488403,433.836182 
	C1159.819824,433.908112 1163.154419,433.866425 1166.487305,433.842133 
	C1173.026611,433.794464 1173.719116,433.163818 1173.728027,426.753571 
	C1173.759766,404.088715 1173.748291,381.423767 1173.752930,358.758881 
	C1173.753296,356.991302 1173.752930,355.223755 1173.752930,353.016052 
	C1176.176758,353.016052 1177.979614,353.016235 1179.782471,353.016022 
	C1194.447998,353.014343 1209.113647,353.039001 1223.779053,352.997467 
	C1229.420776,352.981476 1230.473999,351.909698 1230.563843,346.276398 
	C1230.632812,341.944580 1230.523438,337.609802 1230.603760,333.278381 
	C1230.687012,328.776184 1228.952393,326.680420 1224.073975,326.752502 
	C1209.245117,326.971466 1194.410767,326.829224 1179.578613,326.827759 
	C1177.805298,326.827576 1176.032104,326.827759 1174.152832,326.827759 
	C1174.152832,307.074677 1174.152832,288.029938 1174.152832,268.603577 
	C1196.877930,268.603577 1219.188965,268.603577 1242.500000,268.605560 
M837.592224,382.209229 
	C847.396057,361.988586 857.219543,341.777405 866.989441,321.540375 
	C869.313293,316.726837 868.358093,315.219177 863.052673,315.147736 
	C857.889465,315.078186 852.716492,315.303802 847.563171,315.066833 
	C843.106812,314.861938 840.663208,316.713440 838.811401,320.782837 
	C830.193970,339.719727 821.300171,358.530914 812.485046,377.377655 
	C810.748047,381.091187 808.921997,384.763031 806.717834,389.320892 
	C805.235107,386.475342 804.207886,384.606720 803.272522,382.693115 
	C793.183838,362.052277 783.031860,341.441620 773.099426,320.725769 
	C771.195740,316.755219 768.757263,314.799530 764.265259,315.073792 
	C759.784180,315.347382 755.273438,315.129700 750.775696,315.136505 
	C742.083252,315.149689 741.625000,315.846069 745.520081,323.368896 
	C760.752991,352.789429 775.942810,382.232605 791.331360,411.571533 
	C792.938049,414.634674 792.930481,416.999115 791.367798,419.876801 
	C788.191650,425.725922 785.750793,432.042969 782.061829,437.532043 
	C771.119995,453.813110 759.874084,469.897491 748.391113,485.801758 
	C745.465698,489.853485 744.999451,492.596710 748.987976,495.928650 
	C751.785889,498.265991 754.115417,501.156342 756.730896,503.721436 
	C761.338623,508.240265 763.343140,508.465912 767.284424,503.427094 
	C775.171936,493.343079 783.117065,483.241608 790.143372,472.558716 
	C808.775024,444.230988 822.434387,413.236115 837.592224,382.209229 
M972.908020,411.497925 
	C972.920593,415.996552 972.792114,420.501099 972.981689,424.992249 
	C973.214294,430.503540 976.284729,433.543976 981.814270,433.797119 
	C985.638672,433.972168 989.477234,433.847992 993.309509,433.839355 
	C1000.204529,433.823822 1000.457397,433.386475 999.871765,426.317261 
	C999.336182,419.851624 998.885132,413.361542 998.819458,406.877930 
	C998.664246,391.550262 998.850464,376.219360 998.732971,360.891052 
	C998.570862,339.739044 987.595093,323.652313 969.178955,317.262177 
	C950.734802,310.862427 933.457825,313.422607 917.215698,323.998627 
	C915.633728,325.028717 914.033997,326.031464 912.311951,327.130157 
	C908.782471,316.268372 907.287476,315.186432 896.427307,315.141846 
	C895.427551,315.137726 894.427856,315.131561 893.428101,315.130493 
	C885.863525,315.122406 885.402039,315.550995 885.397095,322.942383 
	C885.384521,341.604004 885.392578,360.265625 885.392700,378.927246 
	C885.392761,395.089539 885.501526,411.252991 885.326416,427.413391 
	C885.275085,432.148132 886.999390,434.139771 891.764526,433.876862 
	C895.917114,433.647675 900.093018,433.864136 904.258362,433.840210 
	C910.981079,433.801575 911.576904,433.238739 911.587341,426.309021 
	C911.621887,403.315338 911.497681,380.320251 911.765198,357.329559 
	C911.795227,354.752289 913.309082,351.518402 915.214661,349.757446 
	C922.178894,343.321686 930.391907,339.010864 939.917847,337.556610 
	C955.983032,335.103973 973.284058,341.434357 972.933655,364.511932 
	C972.700928,379.837494 972.901062,395.169586 972.908020,411.497925 
M1065.734741,407.017639 
	C1052.227539,399.000854 1046.022583,386.904663 1047.104736,371.488708 
	C1048.045410,358.087830 1054.779419,347.988220 1066.939819,341.787292 
	C1079.409790,335.428436 1096.234741,337.297333 1106.834473,346.237000 
	C1111.460571,350.138641 1112.117310,350.093658 1115.954956,345.345428 
	C1118.152588,342.626312 1120.228271,339.808258 1122.435303,337.097107 
	C1124.741455,334.264343 1124.909424,331.483704 1121.754517,329.398865 
	C1115.408691,325.205139 1109.328247,320.140625 1102.361328,317.439789 
	C1077.042603,307.624542 1046.826538,318.217468 1031.826904,341.358429 
	C1016.427185,365.116608 1019.026306,395.964874 1038.124512,416.102600 
	C1061.301270,440.540955 1098.843018,441.886810 1122.427246,419.263062 
	C1125.476318,416.338165 1125.804810,413.897980 1123.100952,410.739960 
	C1120.720337,407.959503 1118.458008,405.066376 1116.305054,402.105438 
	C1113.827393,398.697815 1111.380859,398.188232 1108.089355,401.209900 
	C1095.624878,412.652588 1081.577515,413.878204 1065.734741,407.017639 
M1402.513672,315.132233 
	C1398.568604,315.132233 1394.623413,315.132233 1390.389404,315.132233 
	C1390.289795,312.859802 1390.160156,311.236481 1390.156982,309.612915 
	C1390.139648,300.614471 1390.278931,291.612579 1390.036011,282.620697 
	C1389.994019,281.065186 1388.373169,278.284576 1387.488159,278.287201 
	C1385.723145,278.292389 1383.809937,279.637848 1382.263184,280.826752 
	C1381.465454,281.439819 1381.437378,282.969971 1380.866211,283.974670 
	C1376.021851,292.494049 1371.793945,301.470520 1366.051147,309.339264 
	C1361.305176,315.842346 1354.913086,321.200226 1348.940308,326.730774 
	C1345.399536,330.009430 1345.124268,334.118073 1346.556641,337.657532 
	C1347.245972,339.361084 1351.386108,340.048218 1354.076416,340.461243 
	C1357.114014,340.927551 1360.278198,340.568695 1363.943359,340.568695 
	C1363.943359,343.040710 1363.941772,344.828491 1363.943604,346.616272 
	C1363.959961,362.780151 1363.734863,378.949677 1364.113647,395.105072 
	C1364.264526,401.538544 1365.176636,408.086700 1366.760742,414.323975 
	C1369.328857,424.436005 1375.873901,431.110413 1386.275513,433.643768 
	C1396.954346,436.244568 1407.420044,435.360687 1417.736328,431.864929 
	C1421.997314,430.421051 1424.074341,427.861755 1422.283813,423.118011 
	C1421.528198,421.115967 1421.309814,418.908020 1420.877686,416.787476 
	C1419.165283,408.385132 1419.095825,408.332520 1410.817139,409.758484 
	C1395.892212,412.329285 1390.293701,407.712646 1390.014893,392.598450 
	C1389.990356,391.265656 1389.991943,389.932312 1389.991455,388.599213 
	C1389.986450,374.101624 1389.983521,359.604034 1389.979858,345.106445 
	C1389.979492,343.506348 1389.979736,341.906281 1389.979736,340.615509 
	C1398.119385,340.615509 1405.603760,340.644897 1413.087769,340.601746 
	C1416.303223,340.583221 1419.255127,340.015106 1419.281860,335.841827 
	C1419.315918,330.510284 1419.651123,325.133942 1419.039795,319.871765 
	C1418.840210,318.154938 1416.284546,315.765381 1414.454224,315.386932 
	C1410.935425,314.659393 1407.165283,315.148071 1402.513672,315.132233 
M1313.040649,315.133881 
	C1308.708740,315.131958 1304.376709,315.121338 1300.044800,315.130127 
	C1293.083008,315.144257 1292.473389,315.751648 1292.471924,322.917816 
	C1292.465332,355.407471 1292.471436,387.897125 1292.481323,420.386780 
	C1292.481812,422.051300 1292.437744,423.729645 1292.624512,425.377777 
	C1293.241455,430.822113 1296.344482,433.663391 1301.885010,433.827484 
	C1305.214478,433.926117 1308.549561,433.887573 1311.881104,433.837494 
	C1317.981079,433.745819 1318.639282,433.106415 1318.647949,426.790131 
	C1318.682739,401.131714 1318.673828,375.473206 1318.680542,349.814728 
	C1318.683105,340.317749 1318.679443,330.820801 1318.688354,321.323822 
	C1318.691406,318.030518 1318.054565,315.253265 1313.040649,315.133881 
M1296.941406,245.331726 
	C1291.264526,250.595154 1289.680420,256.147064 1292.102295,262.291473 
	C1294.258545,267.761383 1298.911377,270.997711 1304.811035,271.131104 
	C1311.331421,271.278564 1316.276489,268.184265 1318.671875,262.457855 
	C1320.949341,257.013214 1319.492432,250.444855 1315.114136,246.418839 
	C1310.276611,241.970551 1304.574097,241.490616 1296.941406,245.331726 
z"/>
<path fill="#51902C" opacity="1.000000" stroke="none" 
	d="
M688.040100,359.811859 
	C672.674011,353.373260 657.492432,347.426514 642.656677,340.715363 
	C631.832947,335.819153 621.786072,329.357727 614.608826,319.576782 
	C598.075134,297.045044 605.860107,263.088867 630.969727,249.808990 
	C657.249451,235.910202 683.313782,238.598145 708.591614,252.921921 
	C713.622986,255.772995 718.114441,259.601868 722.750366,263.117584 
	C726.335144,265.836182 726.617920,269.015686 723.709656,272.557068 
	C721.386230,275.386475 719.267456,278.383087 717.022949,281.278473 
	C712.507263,287.103638 710.927429,287.324951 705.297607,282.741241 
	C697.085205,276.054840 688.334961,270.310577 677.846252,267.957428 
	C667.885681,265.722839 657.964844,265.965210 648.522766,270.247742 
	C639.741028,274.230804 634.025696,280.888672 633.035950,290.723907 
	C631.969482,301.321198 637.365356,308.953339 646.198608,313.479950 
	C657.571594,319.308044 669.698364,323.649567 681.188843,329.268585 
	C691.616577,334.367981 702.444519,339.225616 711.664551,346.107758 
	C737.381409,365.303711 737.036865,399.905548 711.709290,420.236542 
	C687.938782,439.317719 650.564697,440.689087 623.660400,423.022491 
	C616.888794,418.575928 610.957520,412.848450 604.649292,407.698242 
	C601.524109,405.146759 601.594727,402.578552 604.353760,399.676178 
	C607.449463,396.419556 610.258545,392.892426 613.285461,389.567780 
	C616.224670,386.339355 619.219666,386.034790 622.839600,388.960236 
	C628.521484,393.552063 634.243652,398.194183 640.429993,402.041016 
	C654.138184,410.565094 669.038513,411.620422 684.137268,406.703003 
	C694.509644,403.324829 702.512268,396.742493 703.799255,385.062775 
	C705.128723,372.998230 698.274780,365.417999 688.040100,359.811859 
z"/>
<path fill="#52912C" opacity="1.000000" stroke="none" 
	d="
M1242.000000,268.604553 
	C1219.188965,268.603577 1196.877930,268.603577 1174.152832,268.603577 
	C1174.152832,288.029938 1174.152832,307.074677 1174.152832,326.827759 
	C1176.032104,326.827759 1177.805298,326.827576 1179.578613,326.827759 
	C1194.410767,326.829224 1209.245117,326.971466 1224.073975,326.752502 
	C1228.952393,326.680420 1230.687012,328.776184 1230.603760,333.278381 
	C1230.523438,337.609802 1230.632812,341.944580 1230.563843,346.276398 
	C1230.473999,351.909698 1229.420776,352.981476 1223.779053,352.997467 
	C1209.113647,353.039001 1194.447998,353.014343 1179.782471,353.016022 
	C1177.979614,353.016235 1176.176758,353.016052 1173.752930,353.016052 
	C1173.752930,355.223755 1173.753296,356.991302 1173.752930,358.758881 
	C1173.748291,381.423767 1173.759766,404.088715 1173.728027,426.753571 
	C1173.719116,433.163818 1173.026611,433.794464 1166.487305,433.842133 
	C1163.154419,433.866425 1159.819824,433.908112 1156.488403,433.836182 
	C1150.197754,433.700378 1147.093750,430.668671 1146.676270,424.326813 
	C1146.599854,423.164581 1146.628296,421.994720 1146.628174,420.828369 
	C1146.626099,364.166138 1146.620117,307.503876 1146.632324,250.841629 
	C1146.634155,242.244720 1146.766968,242.148117 1155.245728,242.148636 
	C1191.076294,242.150864 1226.906738,242.149536 1262.737305,242.162277 
	C1269.771484,242.164780 1270.328857,242.750198 1270.380615,249.932693 
	C1270.405884,253.432266 1270.415405,256.932129 1270.402222,260.431763 
	C1270.374146,267.853668 1269.653076,268.561829 1261.998291,268.592346 
	C1255.499023,268.618256 1248.999390,268.602722 1242.000000,268.604553 
z"/>
<path fill="#52902C" opacity="1.000000" stroke="none" 
	d="
M837.412903,382.536316 
	C822.434387,413.236115 808.775024,444.230988 790.143372,472.558716 
	C783.117065,483.241608 775.171936,493.343079 767.284424,503.427094 
	C763.343140,508.465912 761.338623,508.240265 756.730896,503.721436 
	C754.115417,501.156342 751.785889,498.265991 748.987976,495.928650 
	C744.999451,492.596710 745.465698,489.853485 748.391113,485.801758 
	C759.874084,469.897491 771.119995,453.813110 782.061829,437.532043 
	C785.750793,432.042969 788.191650,425.725922 791.367798,419.876801 
	C792.930481,416.999115 792.938049,414.634674 791.331360,411.571533 
	C775.942810,382.232605 760.752991,352.789429 745.520081,323.368896 
	C741.625000,315.846069 742.083252,315.149689 750.775696,315.136505 
	C755.273438,315.129700 759.784180,315.347382 764.265259,315.073792 
	C768.757263,314.799530 771.195740,316.755219 773.099426,320.725769 
	C783.031860,341.441620 793.183838,362.052277 803.272522,382.693115 
	C804.207886,384.606720 805.235107,386.475342 806.717834,389.320892 
	C808.921997,384.763031 810.748047,381.091187 812.485046,377.377655 
	C821.300171,358.530914 830.193970,339.719727 838.811401,320.782837 
	C840.663208,316.713440 843.106812,314.861938 847.563171,315.066833 
	C852.716492,315.303802 857.889465,315.078186 863.052673,315.147736 
	C868.358093,315.219177 869.313293,316.726837 866.989441,321.540375 
	C857.219543,341.777405 847.396057,361.988586 837.412903,382.536316 
z"/>
<path fill="#53912E" opacity="1.000000" stroke="none" 
	d="
M972.907715,410.998352 
	C972.901062,395.169586 972.700928,379.837494 972.933655,364.511932 
	C973.284058,341.434357 955.983032,335.103973 939.917847,337.556610 
	C930.391907,339.010864 922.178894,343.321686 915.214661,349.757446 
	C913.309082,351.518402 911.795227,354.752289 911.765198,357.329559 
	C911.497681,380.320251 911.621887,403.315338 911.587341,426.309021 
	C911.576904,433.238739 910.981079,433.801575 904.258362,433.840210 
	C900.093018,433.864136 895.917114,433.647675 891.764526,433.876862 
	C886.999390,434.139771 885.275085,432.148132 885.326416,427.413391 
	C885.501526,411.252991 885.392761,395.089539 885.392700,378.927246 
	C885.392578,360.265625 885.384521,341.604004 885.397095,322.942383 
	C885.402039,315.550995 885.863525,315.122406 893.428101,315.130493 
	C894.427856,315.131561 895.427551,315.137726 896.427307,315.141846 
	C907.287476,315.186432 908.782471,316.268372 912.311951,327.130157 
	C914.033997,326.031464 915.633728,325.028717 917.215698,323.998627 
	C933.457825,313.422607 950.734802,310.862427 969.178955,317.262177 
	C987.595093,323.652313 998.570862,339.739044 998.732971,360.891052 
	C998.850464,376.219360 998.664246,391.550262 998.819458,406.877930 
	C998.885132,413.361542 999.336182,419.851624 999.871765,426.317261 
	C1000.457397,433.386475 1000.204529,433.823822 993.309509,433.839355 
	C989.477234,433.847992 985.638672,433.972168 981.814270,433.797119 
	C976.284729,433.543976 973.214294,430.503540 972.981689,424.992249 
	C972.792114,420.501099 972.920593,415.996552 972.907715,410.998352 
z"/>
<path fill="#51902C" opacity="1.000000" stroke="none" 
	d="
M1066.083008,407.163147 
	C1081.577515,413.878204 1095.624878,412.652588 1108.089355,401.209900 
	C1111.380859,398.188232 1113.827393,398.697815 1116.305054,402.105438 
	C1118.458008,405.066376 1120.720337,407.959503 1123.100952,410.739960 
	C1125.804810,413.897980 1125.476318,416.338165 1122.427246,419.263062 
	C1098.843018,441.886810 1061.301270,440.540955 1038.124512,416.102600 
	C1019.026306,395.964874 1016.427185,365.116608 1031.826904,341.358429 
	C1046.826538,318.217468 1077.042603,307.624542 1102.361328,317.439789 
	C1109.328247,320.140625 1115.408691,325.205139 1121.754517,329.398865 
	C1124.909424,331.483704 1124.741455,334.264343 1122.435303,337.097107 
	C1120.228271,339.808258 1118.152588,342.626312 1115.954956,345.345428 
	C1112.117310,350.093658 1111.460571,350.138641 1106.834473,346.237000 
	C1096.234741,337.297333 1079.409790,335.428436 1066.939819,341.787292 
	C1054.779419,347.988220 1048.045410,358.087830 1047.104736,371.488708 
	C1046.022583,386.904663 1052.227539,399.000854 1066.083008,407.163147 
z"/>
<path fill="#52902C" opacity="1.000000" stroke="none" 
	d="
M1403.006592,315.132263 
	C1407.165283,315.148071 1410.935425,314.659393 1414.454224,315.386932 
	C1416.284546,315.765381 1418.840210,318.154938 1419.039795,319.871765 
	C1419.651123,325.133942 1419.315918,330.510284 1419.281860,335.841827 
	C1419.255127,340.015106 1416.303223,340.583221 1413.087769,340.601746 
	C1405.603760,340.644897 1398.119385,340.615509 1389.979736,340.615509 
	C1389.979736,341.906281 1389.979492,343.506348 1389.979858,345.106445 
	C1389.983521,359.604034 1389.986450,374.101624 1389.991455,388.599213 
	C1389.991943,389.932312 1389.990356,391.265656 1390.014893,392.598450 
	C1390.293701,407.712646 1395.892212,412.329285 1410.817139,409.758484 
	C1419.095825,408.332520 1419.165283,408.385132 1420.877686,416.787476 
	C1421.309814,418.908020 1421.528198,421.115967 1422.283813,423.118011 
	C1424.074341,427.861755 1421.997314,430.421051 1417.736328,431.864929 
	C1407.420044,435.360687 1396.954346,436.244568 1386.275513,433.643768 
	C1375.873901,431.110413 1369.328857,424.436005 1366.760742,414.323975 
	C1365.176636,408.086700 1364.264526,401.538544 1364.113647,395.105072 
	C1363.734863,378.949677 1363.959961,362.780151 1363.943604,346.616272 
	C1363.941772,344.828491 1363.943359,343.040710 1363.943359,340.568695 
	C1360.278198,340.568695 1357.114014,340.927551 1354.076416,340.461243 
	C1351.386108,340.048218 1347.245972,339.361084 1346.556641,337.657532 
	C1345.124268,334.118073 1345.399536,330.009430 1348.940308,326.730774 
	C1354.913086,321.200226 1361.305176,315.842346 1366.051147,309.339264 
	C1371.793945,301.470520 1376.021851,292.494049 1380.866211,283.974670 
	C1381.437378,282.969971 1381.465454,281.439819 1382.263184,280.826752 
	C1383.809937,279.637848 1385.723145,278.292389 1387.488159,278.287201 
	C1388.373169,278.284576 1389.994019,281.065186 1390.036011,282.620697 
	C1390.278931,291.612579 1390.139648,300.614471 1390.156982,309.612915 
	C1390.160156,311.236481 1390.289795,312.859802 1390.389404,315.132233 
	C1394.623413,315.132233 1398.568604,315.132233 1403.006592,315.132263 
z"/>
<path fill="#368D31" opacity="1.000000" stroke="none" 
	d="
M335.985718,302.970428 
	C340.664490,298.349487 345.343262,293.728577 350.689575,288.991791 
	C351.879150,288.191895 352.401245,287.507874 352.923309,286.823822 
	C352.921265,286.465607 353.077271,286.200409 353.967041,286.158661 
	C355.361816,289.560028 356.901855,292.834137 356.887329,296.101349 
	C356.756744,325.422363 356.352783,354.742157 356.029175,384.062317 
	C352.049286,386.959991 347.985535,389.753113 344.149475,392.830048 
	C343.210205,393.583466 343.015930,395.265594 342.848755,396.982910 
	C343.423523,397.722809 343.694427,397.900146 344.031067,397.977112 
	C344.031067,397.977112 344.000000,397.999512 344.006470,398.343079 
	C344.681274,399.454346 345.349548,400.222046 346.017822,400.989777 
	C346.369415,401.360168 346.721039,401.730530 347.069916,402.758362 
	C348.091705,404.592438 349.116272,405.769073 350.140808,406.945740 
	C351.124756,408.230530 352.108734,409.515320 353.069397,411.510956 
	C348.648560,415.498688 351.026398,419.973114 351.018951,423.990417 
	C350.978851,445.624878 351.101715,467.260315 350.909485,488.893127 
	C350.873413,492.953339 349.662964,497.003082 348.994415,501.057678 
	C348.994415,501.057678 348.775269,501.278046 348.247620,501.171387 
	C346.814117,501.373413 345.908203,501.682098 345.002289,501.990784 
	C344.512512,502.262115 344.022736,502.533447 343.140930,502.641602 
	C342.389740,502.354370 342.145050,502.488983 342.014893,502.882141 
	C340.068878,503.368073 338.122833,503.854004 335.400818,504.158020 
	C333.749725,500.796295 332.069794,497.595612 332.151520,494.440521 
	C332.389191,485.263275 333.332336,476.104340 333.998779,466.938202 
	C334.543335,466.248657 335.087891,465.559113 335.750000,464.253693 
	C335.154358,463.159149 334.441162,462.680450 333.727966,462.201721 
	C333.727966,462.201721 333.843384,462.154694 333.882019,461.785278 
	C337.352051,451.582550 335.478577,441.383789 336.036316,431.349884 
	C336.389740,424.990845 337.528687,418.651062 337.523193,412.303284 
	C337.517578,405.788269 336.415527,399.281158 336.065277,392.755981 
	C335.925781,390.157074 336.768402,387.514923 336.726227,384.899536 
	C336.600677,377.116974 336.154694,369.339630 336.028656,361.557068 
	C335.899384,353.575195 335.292358,345.507751 336.204315,337.629364 
	C337.070068,330.150635 332.572693,322.578918 336.899445,315.291534 
	C337.104004,314.946991 336.829163,314.323517 336.792145,313.828888 
	C336.521210,310.209564 336.254089,306.589935 335.985718,302.970428 
z"/>
<path fill="#439531" opacity="1.000000" stroke="none" 
	d="
M356.355164,383.955811 
	C356.352783,354.742157 356.756744,325.422363 356.887329,296.101349 
	C356.901855,292.834137 355.361816,289.560028 354.202209,286.106750 
	C354.463165,285.198334 354.945526,284.306030 355.686676,283.774872 
	C359.042328,281.369873 358.649872,278.891907 355.971130,275.427368 
	C355.956390,266.318207 356.080048,258.055725 355.961700,249.796707 
	C355.895050,245.144424 355.088074,240.486649 355.240479,235.851929 
	C355.390289,231.295502 356.331543,226.765076 356.925507,222.223251 
	C362.012238,227.527344 367.159088,232.775620 372.159271,238.160080 
	C374.509796,240.691223 376.578247,243.484390 378.968994,246.732391 
	C379.450592,247.532959 379.737732,247.759979 380.024841,247.987000 
	C380.380737,248.043198 380.641907,248.231079 380.603882,249.026245 
	C380.600006,254.430252 380.964569,259.358337 380.974121,264.287109 
	C381.029419,292.881927 381.067230,321.477295 380.925476,350.071533 
	C380.905609,354.076599 379.866119,358.076599 379.228149,362.575806 
	C380.210449,362.872650 382.197784,363.473236 384.185120,364.073822 
	C375.017120,370.665649 365.849121,377.257477 356.355164,383.955811 
z"/>
<path fill="#53912E" opacity="1.000000" stroke="none" 
	d="
M1313.485107,315.144379 
	C1318.054565,315.253265 1318.691406,318.030518 1318.688354,321.323822 
	C1318.679443,330.820801 1318.683105,340.317749 1318.680542,349.814728 
	C1318.673828,375.473206 1318.682739,401.131714 1318.647949,426.790131 
	C1318.639282,433.106415 1317.981079,433.745819 1311.881104,433.837494 
	C1308.549561,433.887573 1305.214478,433.926117 1301.885010,433.827484 
	C1296.344482,433.663391 1293.241455,430.822113 1292.624512,425.377777 
	C1292.437744,423.729645 1292.481812,422.051300 1292.481323,420.386780 
	C1292.471436,387.897125 1292.465332,355.407471 1292.471924,322.917816 
	C1292.473389,315.751648 1293.083008,315.144257 1300.044800,315.130127 
	C1304.376709,315.121338 1308.708740,315.131958 1313.485107,315.144379 
z"/>
<path fill="#2D8633" opacity="1.000000" stroke="none" 
	d="
M335.671143,303.087585 
	C336.254089,306.589935 336.521210,310.209564 336.792145,313.828888 
	C336.829163,314.323517 337.104004,314.946991 336.899445,315.291534 
	C332.572693,322.578918 337.070068,330.150635 336.204315,337.629364 
	C335.292358,345.507751 335.899384,353.575195 336.028656,361.557068 
	C336.154694,369.339630 336.600677,377.116974 336.726227,384.899536 
	C336.768402,387.514923 335.925781,390.157074 336.065277,392.755981 
	C336.415527,399.281158 337.517578,405.788269 337.523193,412.303284 
	C337.528687,418.651062 336.389740,424.990845 336.036316,431.349884 
	C335.478577,441.383789 337.352051,451.582550 333.856628,461.842194 
	C327.249908,456.133270 320.707245,449.997986 313.948151,443.285217 
	C313.416748,442.501068 313.101776,442.294464 312.786804,442.087860 
	C312.786804,442.087860 312.905640,442.092041 312.928711,441.762268 
	C317.163940,437.270416 316.131012,432.127197 316.093353,426.930237 
	C315.894440,399.472046 315.882721,372.010834 316.081848,344.552643 
	C316.132111,337.626923 316.710632,330.775116 313.226624,324.415405 
	C313.226624,324.415405 313.371124,324.360565 313.768127,324.499237 
	C315.104065,323.405273 316.042999,322.172668 316.981964,320.940063 
	C323.106842,315.028290 329.231689,309.116547 335.671143,303.087585 
z"/>
<path fill="#509E2F" opacity="1.000000" stroke="none" 
	d="
M384.522552,364.025696 
	C382.197784,363.473236 380.210449,362.872650 379.228149,362.575806 
	C379.866119,358.076599 380.905609,354.076599 380.925476,350.071533 
	C381.067230,321.477295 381.029419,292.881927 380.974121,264.287109 
	C380.964569,259.358337 380.600006,254.430252 380.658203,249.269104 
	C389.526215,259.182220 398.135468,269.328094 406.677246,280.108032 
	C406.265198,282.230072 405.443573,283.796204 405.671997,285.190277 
	C406.204224,288.438446 407.097229,291.651123 408.123444,294.786743 
	C408.859650,297.036163 409.306213,298.732544 406.766663,300.314026 
	C405.902985,300.851898 405.640717,303.075958 405.821014,304.434326 
	C406.356110,308.466431 407.780090,312.435638 407.897247,316.457397 
	C408.200012,326.848755 407.987518,337.255096 407.980774,347.655457 
	C405.551331,349.428467 403.148102,351.238831 400.686981,352.966766 
	C395.427185,356.659637 390.137451,360.309845 384.522552,364.025696 
z"/>
<path fill="#227F36" opacity="1.000000" stroke="none" 
	d="
M312.940338,324.542542 
	C316.710632,330.775116 316.132111,337.626923 316.081848,344.552643 
	C315.882721,372.010834 315.894440,399.472046 316.093353,426.930237 
	C316.131012,432.127197 317.163940,437.270416 312.906799,441.817505 
	C306.165436,435.933075 299.469116,429.663574 292.860870,422.755981 
	C293.699646,421.210876 295.118347,420.290588 295.100616,419.398804 
	C294.847565,406.669250 294.420959,393.942810 293.993073,381.217102 
	C293.687469,372.128387 293.443604,363.034271 292.895844,353.959259 
	C292.740112,351.379364 290.980133,348.640625 295.102295,347.733795 
	C294.694366,346.137695 294.286438,344.541595 293.878510,342.945496 
	C300.137024,336.853546 306.395538,330.761627 312.940338,324.542542 
z"/>
<path fill="#5FA82E" opacity="1.000000" stroke="none" 
	d="
M408.370087,347.656616 
	C407.987518,337.255096 408.200012,326.848755 407.897247,316.457397 
	C407.780090,312.435638 406.356110,308.466431 405.821014,304.434326 
	C405.640717,303.075958 405.902985,300.851898 406.766663,300.314026 
	C409.306213,298.732544 408.859650,297.036163 408.123444,294.786743 
	C407.097229,291.651123 406.204224,288.438446 405.671997,285.190277 
	C405.443573,283.796204 406.265198,282.230072 406.775879,280.434265 
	C414.927338,289.501984 422.912659,298.877563 430.956482,309.022736 
	C431.137848,313.133240 429.939728,316.903992 434.134155,318.904480 
	C434.557159,319.106262 434.993561,320.398773 434.810730,320.585754 
	C431.555786,323.914917 432.486328,327.989685 432.401428,332.005249 
	C432.230072,340.110870 431.683838,348.209381 431.244751,356.308228 
	C431.022095,360.415405 430.655457,364.514923 430.448761,368.622650 
	C430.403320,369.525330 430.438751,370.778290 430.983490,371.308777 
	C434.776947,375.003326 432.754242,377.263824 428.704163,379.175812 
	C431.019165,382.500305 433.128876,385.529999 435.376465,388.757690 
	C433.542114,389.235626 431.643066,389.730408 429.744049,390.225220 
	C429.744049,390.225220 429.825134,390.146423 429.760986,389.911804 
	C429.362183,389.488861 429.027557,389.300537 428.692902,389.112213 
	C425.194000,381.917450 421.571106,374.779541 418.237701,367.508881 
	C415.823792,362.243866 413.867798,356.770477 411.542999,351.462067 
	C410.927704,350.057068 409.703857,348.918579 408.370087,347.656616 
z"/>
<path fill="#6BB02D" opacity="1.000000" stroke="none" 
	d="
M429.850281,390.549744 
	C431.643066,389.730408 433.542114,389.235626 435.376465,388.757690 
	C433.128876,385.529999 431.019165,382.500305 428.704163,379.175812 
	C432.754242,377.263824 434.776947,375.003326 430.983490,371.308777 
	C430.438751,370.778290 430.403320,369.525330 430.448761,368.622650 
	C430.655457,364.514923 431.022095,360.415405 431.244751,356.308228 
	C431.683838,348.209381 432.230072,340.110870 432.401428,332.005249 
	C432.486328,327.989685 431.555786,323.914917 434.810730,320.585754 
	C434.993561,320.398773 434.557159,319.106262 434.134155,318.904480 
	C429.939728,316.903992 431.137848,313.133240 431.033569,309.349915 
	C433.768616,312.956207 437.097046,316.727203 439.084076,321.106842 
	C444.537079,333.125793 449.426666,345.400391 454.834229,357.996460 
	C455.129242,358.419189 455.519440,358.636475 455.519440,358.636475 
	C455.519440,358.636475 455.908783,358.417542 455.908783,358.417542 
	C464.295502,358.502594 472.682251,358.587646 481.522583,359.053223 
	C481.973145,359.621307 481.970093,359.808807 481.500458,359.993652 
	C474.892731,359.993835 468.751587,359.994110 462.610443,360.000610 
	C458.546661,360.004913 456.557434,362.888153 456.693054,366.102997 
	C457.107727,375.934204 458.181274,385.737671 458.998505,395.551910 
	C452.358093,395.589020 445.664825,396.131744 439.100128,395.445007 
	C435.927582,395.113129 432.996735,392.470612 429.850281,390.549744 
z"/>
<path fill="#177737" opacity="1.000000" stroke="none" 
	d="
M293.562897,343.049774 
	C294.286438,344.541595 294.694366,346.137695 295.102295,347.733795 
	C290.980133,348.640625 292.740112,351.379364 292.895844,353.959259 
	C293.443604,363.034271 293.687469,372.128387 293.993073,381.217102 
	C294.420959,393.942810 294.847565,406.669250 295.100616,419.398804 
	C295.118347,420.290588 293.699646,421.210876 292.746338,422.459473 
	C292.543732,422.801025 292.207184,422.647675 292.010498,422.191284 
	C291.467194,421.533630 291.120544,421.332367 290.773895,421.131104 
	C290.773895,421.131104 290.900635,421.107269 290.798340,420.886719 
	C290.358490,420.482819 290.020905,420.299469 289.683319,420.116119 
	C283.779205,414.516327 277.443237,409.300018 272.059906,403.237762 
	C260.416992,390.126617 262.936127,369.313141 276.674164,358.331543 
	C282.512268,353.664856 287.741394,348.236359 293.562897,343.049774 
z"/>
<path fill="#499833" opacity="1.000000" stroke="none" 
	d="
M365.116455,428.751984 
	C373.678772,441.138336 382.763611,453.202820 390.650055,466.005493 
	C397.910919,477.792664 391.821320,490.753174 378.387817,494.231018 
	C374.861572,495.143982 371.319672,495.996521 367.376221,496.448730 
	C366.312958,492.470093 365.122253,488.923981 365.093445,485.368378 
	C364.940369,466.497559 365.078918,447.624359 365.116455,428.751984 
z"/>
<path fill="#368D31" opacity="1.000000" stroke="none" 
	d="
M356.706970,221.927612 
	C356.331543,226.765076 355.390289,231.295502 355.240479,235.851929 
	C355.088074,240.486649 355.895050,245.144424 355.961700,249.796707 
	C356.080048,258.055725 355.956390,266.318207 355.901489,275.094299 
	C351.598267,270.805023 347.370178,265.961700 343.033844,261.217377 
	C341.499634,259.538818 339.701294,258.101624 337.633545,256.370544 
	C337.243561,256.186798 336.946747,256.063782 336.946747,256.063782 
	C330.260040,256.169647 323.573334,256.275513 316.706238,255.934311 
	C321.258301,255.103134 325.990753,254.719009 331.159637,254.299438 
	C329.808929,251.708923 328.009460,249.825745 328.407135,248.771042 
	C331.435699,240.739273 327.758484,232.653168 328.969788,224.655350 
	C329.487579,221.236404 327.775818,219.877960 324.339294,219.947281 
	C321.582703,220.002853 318.814728,219.497131 316.051819,219.240509 
	C326.692719,219.191437 337.337708,218.964569 347.971741,219.211334 
	C350.827820,219.277618 353.650452,220.785736 356.706970,221.927612 
z"/>
<path fill="#0E7039" opacity="1.000000" stroke="none" 
	d="
M281.301086,517.637329 
	C275.688904,519.071106 270.130005,520.780518 264.452881,521.878723 
	C254.059952,523.889221 244.564392,517.776245 241.938416,507.750702 
	C239.442245,498.220825 245.011917,488.518005 255.339294,485.375977 
	C261.817657,483.404968 268.546661,482.257812 275.542358,481.184143 
	C275.615143,489.182098 275.395844,496.741821 274.973816,504.290222 
	C274.657104,509.955475 274.361755,515.473022 281.301086,517.637329 
z"/>
<path fill="#278233" opacity="1.000000" stroke="none" 
	d="
M333.582703,466.878601 
	C333.332336,476.104340 332.389191,485.263275 332.151520,494.440521 
	C332.069794,497.595612 333.749725,500.796295 335.037476,504.054443 
	C326.945099,506.396484 318.442017,508.667725 309.933624,510.918762 
	C307.872864,511.463959 305.794495,511.942657 303.368958,512.084961 
	C305.126801,508.247253 306.750610,504.867584 302.990326,501.285278 
	C302.368439,500.692810 302.665192,498.940338 302.828217,497.764221 
	C303.092010,495.861328 303.905487,493.997955 303.942810,492.107178 
	C304.059814,486.174835 304.769104,480.091248 301.009308,474.798767 
	C311.728424,472.138824 322.447540,469.478912 333.582703,466.878601 
z"/>
<path fill="#3D9132" opacity="1.000000" stroke="none" 
	d="
M365.079071,428.475830 
	C365.078918,447.624359 364.940369,466.497559 365.093445,485.368378 
	C365.122253,488.923981 366.312958,492.470093 366.978210,496.416809 
	C366.407410,497.016998 365.825928,497.220978 364.581604,497.269714 
	C363.285645,497.384430 362.652527,497.654358 362.019409,497.924316 
	C361.451263,498.114594 360.883118,498.304901 359.690063,498.369843 
	C358.712341,498.491821 358.359558,498.739166 358.006775,498.986511 
	C357.696686,499.114594 357.386597,499.242676 356.479980,499.235413 
	C355.265656,499.359833 354.647827,499.619537 354.029968,499.879272 
	C352.600739,500.302429 351.171509,500.725555 349.368347,501.103180 
	C349.662964,497.003082 350.873413,492.953339 350.909485,488.893127 
	C351.101715,467.260315 350.978851,445.624878 351.018951,423.990417 
	C351.026398,419.973114 348.648560,415.498688 353.118927,411.814514 
	C356.071564,415.420074 358.951355,419.432922 361.904907,424.128906 
	C362.632568,425.546021 363.286560,426.279999 363.940552,427.013977 
	C364.307587,427.409210 364.674652,427.804474 365.079071,428.475830 
z"/>
<path fill="#1B7A37" opacity="1.000000" stroke="none" 
	d="
M300.592834,474.790436 
	C304.769104,480.091248 304.059814,486.174835 303.942810,492.107178 
	C303.905487,493.997955 303.092010,495.861328 302.828217,497.764221 
	C302.665192,498.940338 302.368439,500.692810 302.990326,501.285278 
	C306.750610,504.867584 305.126801,508.247253 303.004639,512.046875 
	C296.042023,514.114502 289.088440,515.853210 281.717957,517.614624 
	C274.361755,515.473022 274.657104,509.955475 274.973816,504.290222 
	C275.395844,496.741821 275.615143,489.182098 275.967407,481.193848 
	C284.067657,478.767670 292.122009,476.774902 300.592834,474.790436 
z"/>
<path fill="#78BA29" opacity="1.000000" stroke="none" 
	d="
M459.434570,395.675903 
	C458.181274,385.737671 457.107727,375.934204 456.693054,366.102997 
	C456.557434,362.888153 458.546661,360.004913 462.610443,360.000610 
	C468.751587,359.994110 474.892731,359.993835 481.909363,360.008301 
	C483.522888,361.062195 484.861267,362.077240 484.899231,363.138794 
	C485.108856,369.000122 485.005402,374.872742 485.001160,380.741516 
	C484.997772,385.448090 484.982788,390.154663 484.508850,394.897491 
	C478.406097,395.162750 472.767456,395.391754 467.128845,395.620758 
	C464.709442,395.680481 462.290039,395.740204 459.434570,395.675903 
z"/>
<path fill="#88C52C" opacity="1.000000" stroke="none" 
	d="
M484.972961,394.861237 
	C484.982788,390.154663 484.997772,385.448090 485.001160,380.741516 
	C485.005402,374.872742 485.108856,369.000122 484.899231,363.138794 
	C484.861267,362.077240 483.522888,361.062195 482.375946,360.010986 
	C481.970093,359.808807 481.973145,359.621307 481.981567,359.152405 
	C491.335510,358.802673 500.684082,358.734344 510.711884,359.060303 
	C512.542175,360.180389 513.693176,360.906250 514.844238,361.632111 
	C513.118225,362.807983 511.392212,363.983887 509.601471,365.203827 
	C511.844727,371.205231 512.970215,377.547760 510.877411,384.201263 
	C510.366669,385.825073 510.096497,387.878021 510.634766,389.410950 
	C512.161072,393.757599 511.689667,394.863953 506.924774,394.932678 
	C499.609375,395.038208 492.290405,394.897491 484.972961,394.861237 
z"/>
<path fill="#278233" opacity="1.000000" stroke="none" 
	d="
M315.668274,219.159546 
	C318.814728,219.497131 321.582703,220.002853 324.339294,219.947281 
	C327.775818,219.877960 329.487579,221.236404 328.969788,224.655350 
	C327.758484,232.653168 331.435699,240.739273 328.407135,248.771042 
	C328.009460,249.825745 329.808929,251.708923 331.159637,254.299438 
	C325.990753,254.719009 321.258301,255.103134 316.250427,255.806473 
	C310.625427,256.207123 305.275909,256.288605 299.462158,255.961609 
	C298.993317,255.370377 298.988739,255.187637 299.413116,255.003540 
	C301.425446,254.905609 303.008759,254.809021 303.994995,254.748840 
	C303.994995,242.815964 303.994995,231.421799 304.316162,220.016922 
	C305.408844,219.747330 306.180328,219.488449 306.951813,219.229568 
	C307.422028,219.177841 307.892273,219.126099 308.932526,219.370056 
	C310.652252,219.522720 311.801971,219.379715 312.951660,219.236710 
	C313.729370,219.184006 314.507050,219.131287 315.668274,219.159546 
z"/>
<path fill="#6BB02D" opacity="1.000000" stroke="none" 
	d="
M231.543884,457.212555 
	C224.943726,462.475922 218.343567,467.739258 211.415680,472.712708 
	C212.478531,469.462830 215.950119,467.781677 214.327225,463.068512 
	C212.760788,458.519318 213.133713,453.229523 213.049332,448.258392 
	C212.886581,438.670746 213.080551,429.077057 212.920166,419.489349 
	C212.895157,417.994385 211.780518,416.517609 211.169769,415.032471 
	C217.217606,409.724548 223.265457,404.416656 229.643921,399.428772 
	C229.180038,403.571747 227.788147,407.381012 227.700058,411.220215 
	C227.404633,424.094666 227.480820,436.980957 227.638229,449.859955 
	C227.673538,452.749878 226.310471,456.876129 231.543884,457.212555 
z"/>
<path fill="#78BA29" opacity="1.000000" stroke="none" 
	d="
M231.855499,457.143372 
	C226.310471,456.876129 227.673538,452.749878 227.638229,449.859955 
	C227.480820,436.980957 227.404633,424.094666 227.700058,411.220215 
	C227.788147,407.381012 229.180038,403.571747 229.973480,399.351868 
	C229.972397,398.955017 229.986740,398.994690 230.193848,398.889648 
	C230.686157,398.594086 230.887115,398.337585 231.003845,398.015106 
	C233.484283,395.756104 235.964737,393.497101 239.062500,391.174835 
	C240.647247,391.750519 241.614716,392.389435 242.582184,393.028351 
	C242.706146,393.471710 242.830109,393.915100 242.675537,394.948059 
	C242.600647,399.898773 242.791122,404.260590 243.011047,408.620880 
	C243.340912,415.161224 242.141388,421.563416 243.606094,428.323242 
	C244.986160,434.692413 243.287186,441.728821 242.942749,448.471680 
	C242.822968,448.610626 242.703201,448.749603 242.087875,449.031830 
	C241.297836,449.341003 241.098114,449.584625 240.993134,449.905914 
	C238.051117,452.295349 235.109116,454.684784 231.855499,457.143372 
z"/>
<path fill="#509E2F" opacity="1.000000" stroke="none" 
	d="
M199.470474,482.239716 
	C194.202774,486.438232 188.935074,490.636749 183.330170,494.484955 
	C183.302444,489.977448 183.878448,485.819763 183.870514,481.663208 
	C183.848434,470.099152 183.700119,458.531555 183.305862,446.975464 
	C183.236435,444.940430 181.737503,442.954132 180.898712,440.945343 
	C186.110077,436.387115 191.321442,431.828888 197.182907,427.195251 
	C198.204285,428.203583 198.878769,429.294067 198.854996,430.369049 
	C198.834381,431.302185 197.619644,432.219757 197.624130,433.140869 
	C197.667389,442.054596 197.885376,450.967285 197.993195,459.880951 
	C198.054626,464.960876 198.004303,470.042175 198.004303,475.478943 
	C198.831070,475.885162 200.313400,476.613495 201.458130,477.175964 
	C201.623657,479.736877 195.297775,478.514008 199.470474,482.239716 
z"/>
<path fill="#5FA82E" opacity="1.000000" stroke="none" 
	d="
M199.784683,482.150787 
	C195.297775,478.514008 201.623657,479.736877 201.458130,477.175964 
	C200.313400,476.613495 198.831070,475.885162 198.004303,475.478943 
	C198.004303,470.042175 198.054626,464.960876 197.993195,459.880951 
	C197.885376,450.967285 197.667389,442.054596 197.624130,433.140869 
	C197.619644,432.219757 198.834381,431.302185 198.854996,430.369049 
	C198.878769,429.294067 198.204285,428.203583 197.506180,427.084808 
	C201.623108,423.111450 206.066879,419.173096 210.840210,415.133606 
	C211.780518,416.517609 212.895157,417.994385 212.920166,419.489349 
	C213.080551,429.077057 212.886581,438.670746 213.049332,448.258392 
	C213.133713,453.229523 212.760788,458.519318 214.327225,463.068512 
	C215.950119,467.781677 212.478531,469.462830 211.078430,472.791382 
	C207.412247,476.127228 203.755569,479.094543 199.784683,482.150787 
z"/>
<path fill="#13733A" opacity="1.000000" stroke="none" 
	d="
M298.984131,255.004883 
	C298.988739,255.187637 298.993317,255.370377 299.012360,255.826935 
	C290.575439,256.162140 282.099884,256.647675 273.679443,256.167389 
	C264.994720,255.672012 258.447449,249.771103 256.480530,241.921356 
	C254.487839,233.968781 257.104309,226.883041 264.626526,222.288864 
	C267.641174,220.447662 271.502136,219.576553 275.079865,219.176819 
	C279.671722,218.663773 284.366394,219.070480 289.155151,219.401260 
	C288.312225,219.811890 287.298248,220.107697 286.355225,219.957626 
	C281.826508,219.236938 280.630981,221.259949 280.917572,225.530701 
	C281.271271,230.800873 280.982300,236.112564 281.025696,241.405884 
	C281.043945,243.629990 281.756195,246.009415 281.181610,248.043869 
	C279.984833,252.281250 281.564148,254.923737 286.080994,254.988663 
	C290.381256,255.050491 294.683014,255.003845 298.984131,255.004883 
z"/>
<path fill="#328933" opacity="1.000000" stroke="none" 
	d="
M156.927399,461.766022 
	C161.012360,458.110748 165.097336,454.455505 169.550003,451.110168 
	C169.021027,455.967072 168.511581,460.657501 167.930115,465.165833 
	C166.798111,473.942841 167.660767,483.010681 168.080856,491.940002 
	C168.287613,496.334839 169.350342,500.689392 170.025726,505.062195 
	C166.852859,507.653748 163.680008,510.245300 159.823578,512.928040 
	C158.440018,513.703003 157.740021,514.386719 157.040024,515.070496 
	C157.040024,515.070496 157.002975,515.006165 156.616150,515.001465 
	C155.490967,514.118652 154.099625,513.230591 154.112900,512.364014 
	C154.292542,500.635559 150.483612,488.825165 154.721054,477.169861 
	C154.870163,476.759674 154.831375,475.921967 154.590897,475.782562 
	C150.019211,473.132782 153.047760,468.924103 152.423935,465.482544 
	C152.423935,465.482544 152.522995,465.523224 152.890244,465.626770 
	C154.107422,464.729523 154.957352,463.728729 155.807281,462.727936 
	C155.807281,462.727936 155.873169,462.863831 156.079346,462.785065 
	C156.499481,462.392883 156.713440,462.079468 156.927399,461.766022 
z"/>
<path fill="#3D9132" opacity="1.000000" stroke="none" 
	d="
M170.358414,504.979004 
	C169.350342,500.689392 168.287613,496.334839 168.080856,491.940002 
	C167.660767,483.010681 166.798111,473.942841 167.930115,465.165833 
	C168.511581,460.657501 169.021027,455.967072 169.873489,450.978516 
	C173.303146,447.398041 176.777008,444.259125 180.574799,441.032776 
	C181.737503,442.954132 183.236435,444.940430 183.305862,446.975464 
	C183.700119,458.531555 183.848434,470.099152 183.870514,481.663208 
	C183.878448,485.819763 183.302444,489.977448 182.998398,494.558044 
	C178.899597,498.286285 174.795349,501.591064 170.358414,504.979004 
z"/>
<path fill="#1B7A37" opacity="1.000000" stroke="none" 
	d="
M299.413116,255.003540 
	C294.683014,255.003845 290.381256,255.050491 286.080994,254.988663 
	C281.564148,254.923737 279.984833,252.281250 281.181610,248.043869 
	C281.756195,246.009415 281.043945,243.629990 281.025696,241.405884 
	C280.982300,236.112564 281.271271,230.800873 280.917572,225.530701 
	C280.630981,221.259949 281.826508,219.236938 286.355225,219.957626 
	C287.298248,220.107697 288.312225,219.811890 289.612091,219.486389 
	C293.991791,219.193115 298.052917,219.135010 302.686401,219.337097 
	C303.465118,219.807495 303.710541,219.950943 303.994995,220.027649 
	C303.994995,231.421799 303.994995,242.815964 303.994995,254.748840 
	C303.008759,254.809021 301.425446,254.905609 299.413116,255.003540 
z"/>
<path fill="#439531" opacity="1.000000" stroke="none" 
	d="
M463.991333,232.059906 
	C468.013855,231.707855 472.036407,231.355820 476.236877,231.338043 
	C473.310425,232.137131 471.650452,233.476074 472.428406,237.034668 
	C472.952240,239.430954 472.973755,241.967575 472.978912,244.441910 
	C473.019226,263.754974 473.051300,283.068451 472.941315,302.380981 
	C472.926575,304.971069 473.365967,306.869690 475.952667,307.805634 
	C471.381042,307.461182 466.809448,307.116730 462.247803,306.281342 
	C462.505890,301.781189 462.902374,297.774719 462.977234,293.762268 
	C463.360840,273.195679 463.661591,252.627518 463.991333,232.059906 
z"/>
<path fill="#227F36" opacity="1.000000" stroke="none" 
	d="
M152.130508,465.624451 
	C153.047760,468.924103 150.019211,473.132782 154.590897,475.782562 
	C154.831375,475.921967 154.870163,476.759674 154.721054,477.169861 
	C150.483612,488.825165 154.292542,500.635559 154.112900,512.364014 
	C154.099625,513.230591 155.490967,514.118652 156.648407,515.019836 
	C151.950043,519.020691 146.832550,522.998474 141.358261,526.619385 
	C140.083344,521.727905 138.399277,517.193359 138.399292,512.658813 
	C138.399338,501.676361 139.209503,490.694763 139.578293,479.708954 
	C139.596954,479.153320 138.536011,478.561432 137.977753,477.986420 
	C142.597534,473.913086 147.217316,469.839752 152.130508,465.624451 
z"/>
<path fill="#53912E" opacity="1.000000" stroke="none" 
	d="
M1297.256226,245.137085 
	C1304.574097,241.490616 1310.276611,241.970551 1315.114136,246.418839 
	C1319.492432,250.444855 1320.949341,257.013214 1318.671875,262.457855 
	C1316.276489,268.184265 1311.331421,271.278564 1304.811035,271.131104 
	C1298.911377,270.997711 1294.258545,267.761383 1292.102295,262.291473 
	C1289.680420,256.147064 1291.264526,250.595154 1297.256226,245.137085 
z"/>
<path fill="#64AC2C" opacity="1.000000" stroke="none" 
	d="
M482.003296,232.174469 
	C484.872620,233.247177 487.741943,234.319885 490.758118,236.091553 
	C490.604126,239.071716 490.080017,241.348740 490.037292,243.634766 
	C489.660980,263.779724 489.370331,283.926300 489.054291,304.072418 
	C486.930603,305.015320 484.806885,305.958221 482.148285,306.501556 
	C481.409302,300.208496 481.058655,294.315674 481.029327,288.421265 
	C480.948151,272.118591 480.959625,255.814987 481.045746,239.512329 
	C481.058655,237.064758 481.669220,234.620346 482.003296,232.174469 
z"/>
<path fill="#328933" opacity="1.000000" stroke="none" 
	d="
M463.635223,232.028641 
	C463.661591,252.627518 463.360840,273.195679 462.977234,293.762268 
	C462.902374,297.774719 462.505890,301.781189 461.932617,306.032990 
	C459.884735,305.677155 458.161987,305.078735 456.072662,303.999084 
	C455.385529,303.393097 455.064941,303.268372 454.744385,303.143677 
	C454.744385,303.143677 454.873627,303.146149 454.895386,302.813263 
	C454.385590,300.966705 452.979248,299.050842 453.461029,298.003082 
	C457.281189,289.694336 453.468445,281.342377 453.792419,273.032806 
	C454.260864,261.015839 453.289581,248.942703 452.932526,236.893524 
	C452.932526,236.893524 452.981171,236.981705 453.296021,236.966034 
	C454.407959,236.321472 455.205017,235.692596 456.002075,235.063721 
	C456.002075,235.063721 456.182373,234.809448 456.625122,234.806335 
	C457.373505,234.563568 457.679138,234.323929 457.984772,234.084290 
	C457.984772,234.084290 458.192963,233.807709 458.630676,233.815063 
	C459.362701,233.624176 459.657043,233.425903 459.951385,233.227646 
	C461.060638,232.817566 462.169861,232.407471 463.635223,232.028641 
z"/>
<path fill="#55A12E" opacity="1.000000" stroke="none" 
	d="
M481.668518,232.006897 
	C481.669220,234.620346 481.058655,237.064758 481.045746,239.512329 
	C480.959625,255.814987 480.948151,272.118591 481.029327,288.421265 
	C481.058655,294.315674 481.409302,300.208496 481.788757,306.459808 
	C480.216461,307.196655 478.468811,307.575714 476.336914,307.880188 
	C473.365967,306.869690 472.926575,304.971069 472.941315,302.380981 
	C473.051300,283.068451 473.019226,263.754974 472.978912,244.441910 
	C472.973755,241.967575 472.952240,239.430954 472.428406,237.034668 
	C471.650452,233.476074 473.310425,232.137131 476.677185,231.438812 
	C478.404236,231.416672 479.868988,231.628006 481.668518,232.006897 
z"/>
<path fill="#96CB36" opacity="1.000000" stroke="none" 
	d="
M484.508850,394.897491 
	C492.290405,394.897491 499.609375,395.038208 506.924774,394.932678 
	C511.689667,394.863953 512.161072,393.757599 510.634766,389.410950 
	C510.096497,387.878021 510.366669,385.825073 510.877411,384.201263 
	C512.970215,377.547760 511.844727,371.205231 509.601471,365.203827 
	C511.392212,363.983887 513.118225,362.807983 514.844238,361.632111 
	C513.693176,360.906250 512.542175,360.180389 511.169373,359.157043 
	C518.484985,358.204498 526.525391,363.459473 528.736755,370.485992 
	C531.516846,379.319519 528.527954,389.185394 521.356201,392.856476 
	C518.071350,394.537933 514.149475,395.706573 510.486847,395.789062 
	C496.333313,396.107971 482.167816,395.895477 467.567810,395.750854 
	C472.767456,395.391754 478.406097,395.162750 484.508850,394.897491 
z"/>
<path fill="#177737" opacity="1.000000" stroke="none" 
	d="
M137.701050,478.054138 
	C138.536011,478.561432 139.596954,479.153320 139.578293,479.708954 
	C139.209503,490.694763 138.399338,501.676361 138.399292,512.658813 
	C138.399277,517.193359 140.083344,521.727905 141.010071,526.653748 
	C140.580780,527.379333 140.142868,527.713623 139.061035,528.029419 
	C137.608734,528.364380 136.800354,528.717896 135.991974,529.071350 
	C135.663574,529.217041 135.335190,529.362671 134.368927,529.289612 
	C131.601547,528.271606 128.102509,527.954712 127.616852,526.576233 
	C126.471672,523.325745 126.540092,519.570251 126.524223,516.017273 
	C126.500221,510.643677 127.701851,505.108093 126.759262,499.937286 
	C125.736610,494.327393 127.630211,490.056091 129.995926,485.566071 
	C131.350327,484.132324 132.704742,482.698608 134.621857,481.002258 
	C135.428375,480.414551 135.672180,480.089478 135.915985,479.764404 
	C136.418777,479.216888 136.921570,478.669373 137.701050,478.054138 
z"/>
<path fill="#8BC531" opacity="1.000000" stroke="none" 
	d="
M243.246643,448.392029 
	C243.287186,441.728821 244.986160,434.692413 243.606094,428.323242 
	C242.141388,421.563416 243.340912,415.161224 243.011047,408.620880 
	C242.791122,404.260590 242.600647,399.898773 242.634674,395.294861 
	C246.831619,409.248047 254.888367,420.704071 267.274445,430.046692 
	C258.957428,436.450195 251.253983,442.381287 243.246643,448.392029 
z"/>
<path fill="#8BC53C" opacity="1.000000" stroke="none" 
	d="
M168.037064,377.146851 
	C174.020950,377.087006 180.009583,376.852173 185.987427,377.014771 
	C192.448669,377.190491 197.120453,381.730652 197.607422,387.845795 
	C198.085251,393.846252 194.135315,399.383606 187.754547,400.263275 
	C182.530731,400.983459 177.146347,400.539062 171.496750,400.113831 
	C171.895004,392.671356 172.629654,385.725952 173.353943,378.878540 
	C171.063339,378.132477 169.550201,377.639648 168.037064,377.146851 
z"/>
<path fill="#78BA29" opacity="1.000000" stroke="none" 
	d="
M489.401672,304.040588 
	C489.370331,283.926300 489.660980,263.779724 490.037292,243.634766 
	C490.080017,241.348740 490.604126,239.071716 490.963654,236.372391 
	C492.921417,237.119202 494.820526,238.284149 496.984070,239.965088 
	C497.469818,240.749191 497.753754,240.896927 498.100342,240.924301 
	C498.442902,240.902359 498.726410,241.021286 498.998718,241.984100 
	C499.029938,260.783600 499.013214,278.880066 498.996490,296.976532 
	C498.996490,296.976532 498.984161,297.014648 498.750336,297.089966 
	C498.243744,297.346222 498.063049,297.594238 497.974457,297.909332 
	C497.974457,297.909332 498.010498,297.963684 497.766815,298.091553 
	C497.257782,298.429230 497.088715,298.699310 497.015991,299.029663 
	C494.593658,300.689392 492.171356,302.349091 489.401672,304.040588 
z"/>
<path fill="#88C52C" opacity="1.000000" stroke="none" 
	d="
M499.338104,296.983276 
	C499.013214,278.880066 499.029938,260.783600 499.087402,242.204514 
	C512.173828,252.701111 515.394531,274.064514 506.082947,288.832703 
	C504.249023,291.741272 501.829285,294.280487 499.338104,296.983276 
z"/>
<path fill="#8BC53C" opacity="1.000000" stroke="none" 
	d="
M261.966187,289.266174 
	C265.765228,289.186066 269.567322,288.970581 273.362671,289.055328 
	C280.349731,289.211334 285.333740,294.220398 285.391418,300.933105 
	C285.445892,307.273834 280.539825,312.365051 273.742554,312.738922 
	C270.114136,312.938507 266.463745,312.738129 262.376160,312.211151 
	C261.941437,304.224762 261.953796,296.745483 261.966187,289.266174 
z"/>
<path fill="#0E7039" opacity="1.000000" stroke="none" 
	d="
M129.689575,485.658020 
	C127.630211,490.056091 125.736610,494.327393 126.759262,499.937286 
	C127.701851,505.108093 126.500221,510.643677 126.524223,516.017273 
	C126.540092,519.570251 126.471672,523.325745 127.616852,526.576233 
	C128.102509,527.954712 131.601547,528.271606 134.174194,529.091431 
	C127.268097,531.293762 119.492401,528.115540 114.575981,520.920227 
	C109.919701,514.105652 109.895615,503.994202 115.529938,497.664001 
	C119.543457,493.154816 124.723679,489.684113 129.689575,485.658020 
z"/>
<path fill="#227F36" opacity="1.000000" stroke="none" 
	d="
M452.594788,236.953278 
	C453.289581,248.942703 454.260864,261.015839 453.792419,273.032806 
	C453.468445,281.342377 457.281189,289.694336 453.461029,298.003082 
	C452.979248,299.050842 454.385590,300.966705 454.866241,302.870972 
	C453.305511,302.391266 451.795715,301.520966 449.980164,300.116943 
	C449.332642,299.424103 448.990875,299.265076 448.649109,299.106018 
	C448.649109,299.106018 448.258850,299.111816 448.258850,299.111816 
	C448.258850,299.111816 447.952271,298.870270 447.913879,298.246277 
	C447.251648,288.813324 446.360291,280.012970 446.075684,271.193054 
	C445.762207,261.479065 446.006256,251.747070 446.007446,242.022934 
	C448.090637,240.352982 450.173859,238.683014 452.594788,236.953278 
z"/>
<path fill="#13733A" opacity="1.000000" stroke="none" 
	d="
M175.408188,312.138428 
	C166.987503,309.235840 163.539536,300.593414 168.784119,294.265076 
	C170.598618,292.075623 174.065170,290.823578 177.010925,290.113983 
	C180.595001,289.250702 184.425980,289.412354 188.566986,289.621887 
	C189.636002,297.514191 190.288193,304.915283 190.940399,312.316406 
	C186.174377,312.374268 181.408371,312.432098 176.157608,312.257568 
	C175.672867,312.025208 175.408188,312.138428 175.408188,312.138428 
z"/>
<path fill="#13733A" opacity="1.000000" stroke="none" 
	d="
M445.693604,242.141022 
	C446.006256,251.747070 445.762207,261.479065 446.075684,271.193054 
	C446.360291,280.012970 447.251648,288.813324 447.872803,298.055481 
	C431.958344,286.947449 429.480988,262.727814 442.483032,245.666260 
	C443.385284,244.482285 444.411346,243.392639 445.693604,242.141022 
z"/>
<path fill="#3D9132" opacity="1.000000" stroke="none" 
	d="
M135.934402,400.161621 
	C129.912659,400.277069 123.890923,400.392487 117.456924,399.975586 
	C117.350510,392.918488 117.733910,386.395294 117.870880,379.866974 
	C117.889473,378.981201 116.673569,378.069519 116.029266,377.169830 
	C122.056931,377.122986 128.084595,377.076172 134.830994,377.386047 
	C136.015488,378.379608 136.903473,379.030945 136.882202,379.651123 
	C136.647736,386.490753 136.271927,393.325562 135.934402,400.161621 
z"/>
<path fill="#13733A" opacity="1.000000" stroke="none" 
	d="
M100.944771,400.163177 
	C96.252960,400.074554 91.372665,400.772308 86.915657,399.704010 
	C80.954292,398.275146 77.995071,392.452393 78.958084,386.538544 
	C79.822052,381.232941 84.634895,377.231934 90.606407,377.013733 
	C93.750885,376.898834 96.903732,377.012939 100.331520,377.462616 
	C99.644127,385.338318 99.126656,392.768311 100.944771,400.163177 
z"/>
<path fill="#13733A" opacity="1.000000" stroke="none" 
	d="
M141.660248,356.167816 
	C138.638580,356.192413 135.616898,356.216980 132.091599,356.084198 
	C131.587967,355.926849 131.451050,356.033173 131.451050,356.033173 
	C124.716408,353.357391 121.793182,348.672089 122.909187,342.342529 
	C123.890053,336.779419 128.949341,333.050018 135.630280,332.999634 
	C138.436249,332.978455 141.242645,333.017090 144.325836,333.469818 
	C144.717804,341.180023 144.832825,348.448944 144.539429,355.786713 
	C143.307434,355.959656 142.483841,356.063721 141.660248,356.167816 
z"/>
<path fill="#6BB02D" opacity="1.000000" stroke="none" 
	d="
M167.570160,377.084229 
	C169.550201,377.639648 171.063339,378.132477 173.353943,378.878540 
	C172.629654,385.725952 171.895004,392.671356 171.063049,399.930054 
	C165.273117,400.337280 159.580521,400.431213 153.547501,400.031555 
	C153.437180,392.818420 153.725830,386.099640 153.812851,379.378235 
	C153.822250,378.652649 152.662292,377.911957 152.044769,377.178253 
	C157.064255,377.126038 162.083755,377.073822 167.570160,377.084229 
z"/>
<path fill="#278233" opacity="1.000000" stroke="none" 
	d="
M101.389465,400.323181 
	C99.126656,392.768311 99.644127,385.338318 100.787956,377.536743 
	C105.677483,377.122803 110.389290,377.073700 115.565186,377.097229 
	C116.673569,378.069519 117.889473,378.981201 117.870880,379.866974 
	C117.733910,386.395294 117.350510,392.918488 117.018173,399.810272 
	C111.939171,400.279266 106.886673,400.381226 101.389465,400.323181 
z"/>
<path fill="#55A12E" opacity="1.000000" stroke="none" 
	d="
M151.578293,377.104340 
	C152.662292,377.911957 153.822250,378.652649 153.812851,379.378235 
	C153.725830,386.099640 153.437180,392.818420 153.115372,399.856628 
	C147.622757,400.284637 142.221878,400.394012 136.377686,400.332520 
	C136.271927,393.325562 136.647736,386.490753 136.882202,379.651123 
	C136.903473,379.030945 136.015488,378.379608 135.296951,377.459167 
	C140.400055,377.127197 145.755936,377.078827 151.578293,377.104340 
z"/>
<path fill="#6BB02D" opacity="1.000000" stroke="none" 
	d="
M261.505798,289.192352 
	C261.953796,296.745483 261.941437,304.224762 261.933350,312.050385 
	C256.587189,312.477386 251.236710,312.558105 245.445023,312.100494 
	C245.002747,304.136414 245.001709,296.710632 245.000656,289.284882 
	C250.348907,289.229431 255.697159,289.173981 261.505798,289.192352 
z"/>
<path fill="#55A12E" opacity="1.000000" stroke="none" 
	d="
M198.904236,356.158142 
	C193.893478,356.269043 188.882706,356.379944 183.434296,355.911865 
	C182.997528,349.910767 182.711960,344.467926 183.102966,339.074097 
	C183.351685,335.643188 182.064026,333.991669 179.039688,333.171509 
	C185.374725,333.125366 191.709763,333.079193 198.325989,333.472656 
	C198.706192,341.327545 198.805222,348.742828 198.904236,356.158142 
z"/>
<path fill="#5FA82E" opacity="1.000000" stroke="none" 
	d="
M244.541443,289.196442 
	C245.001709,296.710632 245.002747,304.136414 245.005310,311.941223 
	C240.298447,312.430847 235.590073,312.541443 230.439102,312.109985 
	C229.997223,304.135223 229.997925,296.702545 229.998642,289.269867 
	C234.693176,289.215912 239.387695,289.161957 244.541443,289.196442 
z"/>
<path fill="#93C947" opacity="1.000000" stroke="none" 
	d="
M213.992874,333.128204 
	C219.302994,333.059082 224.619431,332.796875 229.921646,332.969971 
	C236.472443,333.183868 241.243591,338.038849 241.515320,344.324768 
	C241.775055,350.332977 237.641251,355.491791 231.250397,356.442993 
	C227.838791,356.950775 224.301422,356.613617 220.549988,356.175507 
	C225.433762,355.399994 226.775284,352.349640 226.048309,347.763336 
	C225.946182,347.119110 226.034210,346.444733 226.034210,345.784332 
	C226.034210,333.945526 226.034180,333.945526 214.051941,333.768066 
	C214.034943,333.554535 213.992874,333.128204 213.992874,333.128204 
z"/>
<path fill="#6BB02D" opacity="1.000000" stroke="none" 
	d="
M213.528839,333.074707 
	C213.992874,333.128204 214.034943,333.554535 213.647095,333.858948 
	C212.849487,334.808746 212.067047,335.466034 212.087296,336.097626 
	C212.301575,342.786804 212.643585,349.471924 212.950409,356.158142 
	C208.563919,356.275970 204.177444,356.393768 199.347595,356.334869 
	C198.805222,348.742828 198.706192,341.327545 198.786850,333.547546 
	C203.665955,333.128967 208.365387,333.075104 213.528839,333.074707 
z"/>
<path fill="#499833" opacity="1.000000" stroke="none" 
	d="
M229.541336,289.185944 
	C229.997925,296.702545 229.997223,304.135223 229.998230,311.955994 
	C225.621262,312.445679 221.242569,312.547241 216.446304,312.113129 
	C216.348038,304.144958 216.667374,296.712463 216.986694,289.279999 
	C221.019135,289.220673 225.051590,289.161346 229.541336,289.185944 
z"/>
<path fill="#278233" opacity="1.000000" stroke="none" 
	d="
M191.257797,312.438080 
	C190.288193,304.915283 189.636002,297.514191 188.983154,289.692688 
	C193.347382,289.217255 197.712250,289.162231 202.535126,289.602234 
	C202.980789,297.507385 202.968460,304.917511 202.956131,312.327606 
	C199.863861,312.428131 196.771576,312.528656 193.163177,312.453064 
	C192.647064,312.276917 192.209396,312.314850 192.209396,312.314850 
	C191.998001,312.396454 191.786606,312.478088 191.257797,312.438080 
z"/>
<path fill="#368D31" opacity="1.000000" stroke="none" 
	d="
M203.399200,312.482483 
	C202.968460,304.917511 202.980789,297.507385 202.992264,289.687744 
	C207.351471,289.223541 211.711533,289.168884 216.529144,289.197113 
	C216.667374,296.712463 216.348038,304.144958 216.007431,311.954132 
	C211.938187,312.433044 207.890213,312.535217 203.399200,312.482483 
z"/>
<path fill="#439531" opacity="1.000000" stroke="none" 
	d="
M178.581177,333.097351 
	C182.064026,333.991669 183.351685,335.643188 183.102966,339.074097 
	C182.711960,344.467926 182.997528,349.910767 182.998901,355.742737 
	C178.626602,356.266937 174.252060,356.381226 169.464600,355.968628 
	C169.330383,349.693451 169.838959,343.941376 169.745575,338.199127 
	C169.718094,336.509277 167.985977,334.847107 167.035095,333.172272 
	C170.730942,333.122559 174.426804,333.072845 178.581177,333.097351 
z"/>
<path fill="#227F36" opacity="1.000000" stroke="none" 
	d="
M144.947830,355.717865 
	C144.832825,348.448944 144.717804,341.180023 144.781616,333.545898 
	C148.346207,333.127716 151.731964,333.074707 155.739380,333.432007 
	C156.907150,337.056366 157.880280,340.264587 157.924698,343.485596 
	C158.106964,356.701660 158.002899,356.703094 144.947830,355.717865 
z"/>
<path fill="#78BA29" opacity="1.000000" stroke="none" 
	d="
M213.360718,356.332245 
	C212.643585,349.471924 212.301575,342.786804 212.087296,336.097626 
	C212.067047,335.466034 212.849487,334.808746 213.664093,334.072510 
	C226.034180,333.945526 226.034210,333.945526 226.034210,345.784332 
	C226.034210,346.444733 225.946182,347.119110 226.048309,347.763336 
	C226.775284,352.349640 225.433762,355.399994 220.121918,355.991760 
	C217.900116,356.362335 215.835587,356.434326 213.360718,356.332245 
z"/>
<path fill="#368D31" opacity="1.000000" stroke="none" 
	d="
M144.539429,355.786713 
	C158.002899,356.703094 158.106964,356.701660 157.924698,343.485596 
	C157.880280,340.264587 156.907150,337.056366 156.195099,333.505676 
	C159.393997,333.120117 162.758820,333.071136 166.579376,333.097229 
	C167.985977,334.847107 169.718094,336.509277 169.745575,338.199127 
	C169.838959,343.941376 169.330383,349.693451 169.028778,355.808289 
	C160.156067,356.286621 151.306244,356.398468 142.058350,356.339050 
	C142.483841,356.063721 143.307434,355.959656 144.539429,355.786713 
z"/>
<path fill="#8BC531" opacity="1.000000" stroke="none" 
	d="
M242.666229,392.676788 
	C241.614716,392.389435 240.647247,391.750519 239.382416,391.065735 
	C239.871643,390.320679 240.658264,389.621429 241.914368,388.504883 
	C242.288376,390.214233 242.519318,391.269745 242.666229,392.676788 
z"/>
<path fill="#227F36" opacity="1.000000" stroke="none" 
	d="
M316.679993,321.041412 
	C316.042999,322.172668 315.104065,323.405273 313.805542,324.431641 
	C314.423309,323.197815 315.400635,322.170288 316.679993,321.041412 
z"/>
<path fill="#3D9132" opacity="1.000000" stroke="none" 
	d="
M350.092773,406.613098 
	C349.116272,405.769073 348.091705,404.592438 347.106140,403.018341 
	C348.111603,403.840759 349.078156,405.060608 350.092773,406.613098 
z"/>
<path fill="#227F36" opacity="1.000000" stroke="none" 
	d="
M155.501648,462.808960 
	C154.957352,463.728729 154.107422,464.729523 152.886597,465.573364 
	C153.409149,464.574249 154.302582,463.732117 155.501648,462.808960 
z"/>
<path fill="#227F36" opacity="1.000000" stroke="none" 
	d="
M157.334045,515.001587 
	C157.740021,514.386719 158.440018,513.703003 159.481522,512.987183 
	C159.091385,513.614319 158.359741,514.273499 157.334045,515.001587 
z"/>
<path fill="#499833" opacity="1.000000" stroke="none" 
	d="
M363.905029,426.709229 
	C363.286560,426.279999 362.632568,425.546021 361.969849,424.471680 
	C362.597260,424.889008 363.233368,425.646729 363.905029,426.709229 
z"/>
<path fill="#3D9132" opacity="1.000000" stroke="none" 
	d="
M346.001953,400.674194 
	C345.349548,400.222046 344.681274,399.454346 344.020294,398.329224 
	C344.680450,398.767426 345.333252,399.563049 346.001953,400.674194 
z"/>
<path fill="#227F36" opacity="1.000000" stroke="none" 
	d="
M455.687073,235.075073 
	C455.205017,235.692596 454.407959,236.321472 453.253174,236.939590 
	C453.721008,236.314697 454.546539,235.700562 455.687073,235.075073 
z"/>
<path fill="#2D8633" opacity="1.000000" stroke="none" 
	d="
M333.832764,462.501160 
	C334.441162,462.680450 335.154358,463.159149 335.869385,464.011749 
	C335.226654,463.857300 334.582123,463.328918 333.832764,462.501160 
z"/>
<path fill="#439531" opacity="1.000000" stroke="none" 
	d="
M352.616821,286.909332 
	C352.401245,287.507874 351.879150,288.191895 350.987915,288.864960 
	C351.182587,288.234253 351.746490,287.614563 352.616821,286.909332 
z"/>
<path fill="#368D31" opacity="1.000000" stroke="none" 
	d="
M312.568695,219.146271 
	C311.801971,219.379715 310.652252,219.522720 309.280701,219.448715 
	C310.101166,219.173080 311.143433,219.114456 312.568695,219.146271 
z"/>
<path fill="#368D31" opacity="1.000000" stroke="none" 
	d="
M304.316162,220.016922 
	C303.710541,219.950943 303.465118,219.807495 303.146851,219.413971 
	C304.083527,219.170654 305.132172,219.110657 306.566284,219.140106 
	C306.180328,219.488449 305.408844,219.747330 304.316162,220.016922 
z"/>
<path fill="#3D9132" opacity="1.000000" stroke="none" 
	d="
M345.371704,502.025635 
	C345.908203,501.682098 346.814117,501.373413 348.108337,501.102509 
	C347.578186,501.447021 346.659637,501.753754 345.371704,502.025635 
z"/>
<path fill="#227F36" opacity="1.000000" stroke="none" 
	d="
M136.340118,529.115356 
	C136.800354,528.717896 137.608734,528.364380 138.772583,528.031128 
	C138.314774,528.420776 137.501526,528.790100 136.340118,529.115356 
z"/>
<path fill="#499833" opacity="1.000000" stroke="none" 
	d="
M354.376495,499.929504 
	C354.647827,499.619537 355.265656,499.359833 356.239380,499.146484 
	C355.971161,499.455139 355.347107,499.717438 354.376495,499.929504 
z"/>
<path fill="#499833" opacity="1.000000" stroke="none" 
	d="
M362.374390,497.977844 
	C362.652527,497.654358 363.285645,497.384430 364.283966,497.172729 
	C364.009247,497.497772 363.369324,497.764557 362.374390,497.977844 
z"/>
<path fill="#227F36" opacity="1.000000" stroke="none" 
	d="
M454.854065,303.402039 
	C455.064941,303.268372 455.385529,303.393097 455.857788,303.731567 
	C455.660919,303.850311 455.312347,303.755341 454.854065,303.402039 
z"/>
<path fill="#96CB36" opacity="1.000000" stroke="none" 
	d="
M455.716248,358.257996 
	C455.908783,358.417542 455.519440,358.636475 455.519440,358.636475 
	C455.519440,358.636475 455.129242,358.419189 455.076630,358.268066 
	C455.190582,358.110809 455.357147,358.104645 455.716248,358.257996 
z"/>
<path fill="#93C947" opacity="1.000000" stroke="none" 
	d="
M131.411865,356.119629 
	C131.451050,356.033173 131.587967,355.926849 131.632416,355.998413 
	C131.676865,356.069977 131.632690,356.276001 131.632690,356.276001 
	C131.632690,356.276001 131.372696,356.206116 131.411865,356.119629 
z"/>
<path fill="#3D9132" opacity="1.000000" stroke="none" 
	d="
M342.263794,502.929688 
	C342.145050,502.488983 342.389740,502.354370 342.853699,502.607361 
	C342.809906,502.816620 342.661285,502.896942 342.263794,502.929688 
z"/>
<path fill="#13733A" opacity="1.000000" stroke="none" 
	d="
M192.355194,312.425232 
	C192.209396,312.314850 192.647064,312.276917 192.719299,312.295227 
	C192.791550,312.313538 192.500977,312.535645 192.355194,312.425232 
z"/>
<path fill="#499833" opacity="1.000000" stroke="none" 
	d="
M358.342316,499.022369 
	C358.359558,498.739166 358.712341,498.491821 359.401031,498.278717 
	C359.383911,498.561371 359.030884,498.809814 358.342316,499.022369 
z"/>
<path fill="#6BB02D" opacity="1.000000" stroke="none" 
	d="
M428.782715,389.393951 
	C429.027557,389.300537 429.362183,389.488861 429.774475,389.966705 
	C429.525574,390.062714 429.199036,389.869202 428.782715,389.393951 
z"/>
<path fill="#8BC53C" opacity="1.000000" stroke="none" 
	d="
M175.420105,312.246429 
	C175.408188,312.138428 175.672867,312.025208 175.694717,312.108459 
	C175.716568,312.191711 175.432022,312.354431 175.420105,312.246429 
z"/>
<path fill="#227F36" opacity="1.000000" stroke="none" 
	d="
M135.620239,479.846985 
	C135.672180,480.089478 135.428375,480.414551 134.876038,480.804688 
	C134.819855,480.556366 135.072189,480.242981 135.620239,479.846985 
z"/>
<path fill="#227F36" opacity="1.000000" stroke="none" 
	d="
M459.665894,233.211502 
	C459.657043,233.425903 459.362701,233.624176 458.797729,233.860382 
	C458.811493,233.664001 459.095917,233.429688 459.665894,233.211502 
z"/>
<path fill="#227F36" opacity="1.000000" stroke="none" 
	d="
M457.675629,234.089386 
	C457.679138,234.323929 457.373505,234.563568 456.772705,234.856384 
	C456.773834,234.637863 457.070160,234.366165 457.675629,234.089386 
z"/>
<path fill="#227F36" opacity="1.000000" stroke="none" 
	d="
M289.785950,420.391785 
	C290.020905,420.299469 290.358490,420.482819 290.787415,420.950256 
	C290.548676,421.045380 290.218658,420.856415 289.785950,420.391785 
z"/>
<path fill="#88C52C" opacity="1.000000" stroke="none" 
	d="
M498.008301,240.687195 
	C497.753754,240.896927 497.469818,240.749191 497.134094,240.264236 
	C497.318573,240.181610 497.617432,240.315842 498.008301,240.687195 
z"/>
<path fill="#3D9132" opacity="1.000000" stroke="none" 
	d="
M343.990051,397.695282 
	C343.694427,397.900146 343.423523,397.722809 343.110413,397.222778 
	C343.317963,397.138123 343.633514,397.275787 343.990051,397.695282 
z"/>
<path fill="#6BB02D" opacity="1.000000" stroke="none" 
	d="
M230.749207,398.072449 
	C230.887115,398.337585 230.686157,398.594086 230.174026,398.884644 
	C230.129578,398.699738 230.312073,398.414764 230.749207,398.072449 
z"/>
<path fill="#227F36" opacity="1.000000" stroke="none" 
	d="
M156.645081,461.849731 
	C156.713440,462.079468 156.499481,462.392883 156.004074,462.791138 
	C155.936005,462.561798 156.149368,462.247589 156.645081,461.849731 
z"/>
<path fill="#509E2F" opacity="1.000000" stroke="none" 
	d="
M379.975403,247.696808 
	C379.737732,247.759979 379.450592,247.532959 379.067444,247.040619 
	C379.289551,246.985733 379.607758,247.196167 379.975403,247.696808 
z"/>
<path fill="#8BC531" opacity="1.000000" stroke="none" 
	d="
M241.239471,449.863159 
	C241.098114,449.584625 241.297836,449.341003 241.822968,449.106384 
	C242.001709,449.398193 241.812439,449.659119 241.239471,449.863159 
z"/>
<path fill="#227F36" opacity="1.000000" stroke="none" 
	d="
M312.872437,442.369263 
	C313.101776,442.294464 313.416748,442.501068 313.831024,442.979340 
	C313.606232,443.050873 313.282166,442.850769 312.872437,442.369263 
z"/>
<path fill="#13733A" opacity="1.000000" stroke="none" 
	d="
M337.008362,256.160889 
	C336.946747,256.063782 337.243561,256.186798 337.302826,256.135040 
	C337.362091,256.083282 337.069977,256.257996 337.008362,256.160889 
z"/>
<path fill="#13733A" opacity="1.000000" stroke="none" 
	d="
M448.776825,299.373352 
	C448.990875,299.265076 449.332642,299.424103 449.823639,299.828674 
	C449.616760,299.929718 449.260651,299.785217 448.776825,299.373352 
z"/>
<path fill="#88C52C" opacity="1.000000" stroke="none" 
	d="
M497.288269,298.977325 
	C497.088715,298.699310 497.257782,298.429230 497.736542,298.103638 
	C497.820160,298.300232 497.690369,298.612610 497.288269,298.977325 
z"/>
<path fill="#88C52C" opacity="1.000000" stroke="none" 
	d="
M498.166809,297.789795 
	C498.063049,297.594238 498.243744,297.346222 498.733704,297.078796 
	C498.803101,297.261414 498.605835,297.487396 498.166809,297.789795 
z"/>
<path fill="#227F36" opacity="1.000000" stroke="none" 
	d="
M290.876129,421.425415 
	C291.120544,421.332367 291.467194,421.533630 291.931763,422.023987 
	C291.692566,422.115265 291.335480,421.917480 290.876129,421.425415 
z"/>
</svg>