<svg version="1.1" id="Layer_1" xmlns="http://www.w3.org/2000/svg" xmlns:xlink="http://www.w3.org/1999/xlink" x="0px" y="0px"
	 width="100%" viewBox="0 0 720 715" enable-background="new 0 0 720 715" xml:space="preserve">
<path fill="#4ADE80" opacity="1.000000" stroke="none" 
	d="
M333.000000,716.000000 
	C222.000000,716.000000 111.500000,716.000000 1.000000,716.000000 
	C1.000000,477.666656 1.000000,239.333328 1.000000,1.000000 
	C241.000000,1.000000 481.000000,1.000000 721.000000,1.000000 
	C721.000000,239.333328 721.000000,477.666656 721.000000,716.000000 
	C591.833313,716.000000 462.666656,716.000000 333.000000,716.000000 
M347.089203,435.912292 
	C347.089203,435.912292 347.106598,435.808685 347.262573,436.343262 
	C347.571533,436.527344 347.880493,436.711426 348.099457,436.863251 
	C348.099457,436.863251 348.164062,436.792755 348.107758,437.518677 
	C350.147095,439.283112 352.186401,441.047577 354.156433,442.883057 
	C354.156433,442.883057 354.121124,442.790314 354.274414,443.332458 
	C354.591888,443.507263 354.909393,443.682068 355.098022,443.867706 
	C355.098022,443.867706 355.133667,443.743408 355.301788,444.323975 
	C355.828400,444.564209 356.355042,444.804443 357.381134,445.190582 
	C357.587219,445.457794 357.793304,445.725006 358.226959,446.450104 
	C358.511658,446.626892 358.796387,446.803680 359.531525,447.089630 
	C359.830902,447.240021 360.010406,447.480103 360.086060,448.545807 
	C361.363617,449.374969 362.641174,450.204132 364.413666,451.158966 
	C364.614899,451.421387 364.816132,451.683807 365.099518,452.641022 
	C366.052124,453.102417 367.004700,453.563782 367.995300,453.995819 
	C367.995300,453.995819 367.985626,454.042847 368.250854,454.488129 
	C368.552795,454.644073 368.854767,454.800049 369.807709,455.137482 
	C371.599579,456.308960 373.289093,457.691986 375.200378,458.616608 
	C385.371826,463.537415 395.598785,468.343323 405.942230,473.935760 
	C407.212982,475.618652 408.127808,477.989685 409.817047,478.863434 
	C416.573334,482.357849 423.751587,480.858917 431.692871,479.709839 
	C446.262360,479.776794 461.105530,481.685822 475.350586,479.569275 
	C520.133362,472.915314 554.064514,449.004486 577.727234,410.540588 
	C587.072144,395.350372 592.622131,378.671631 596.699402,360.930664 
	C597.042175,357.289948 597.694092,353.646790 597.665771,350.008972 
	C597.599487,341.479004 597.207581,332.951599 596.956726,323.665466 
	C596.916443,322.404938 596.876160,321.144409 597.053162,319.156586 
	C598.993530,315.705414 598.004211,312.996765 594.968994,309.984283 
	C594.874512,308.826569 594.922241,307.636200 594.664917,306.515930 
	C586.557129,271.224976 568.273254,242.461716 539.163513,220.822556 
	C507.516479,197.297241 471.811096,189.086655 433.042145,194.142471 
	C422.727570,195.487595 412.668030,198.788422 401.864532,200.949051 
	C395.913696,195.442780 388.996277,195.518723 382.456879,198.877823 
	C378.463470,200.929123 374.685394,201.858459 370.332367,202.244125 
	C367.531586,202.492279 363.587585,203.762833 362.416748,205.845871 
	C359.036774,211.859100 356.291138,218.467239 360.048950,226.228333 
	C348.324829,236.516190 338.078552,248.062225 329.913818,261.408020 
	C329.398010,262.251129 328.210968,262.683563 327.001465,262.673462 
	C326.159302,260.989716 324.770721,259.367767 324.572021,257.611237 
	C323.816498,250.931870 319.624725,246.952316 314.428436,243.592682 
	C313.134735,242.756256 311.892944,241.839584 310.101135,240.594055 
	C311.974762,239.443939 313.028320,238.676376 314.184479,238.123489 
	C315.224335,237.626205 316.947662,237.696854 317.385803,236.944275 
	C319.983398,232.482513 322.487762,227.938019 324.543030,223.212402 
	C324.966064,222.239655 323.351288,220.382690 322.680206,218.931244 
	C322.270752,218.045624 321.270996,216.806946 321.554565,216.320816 
	C325.737671,209.149445 316.764984,205.061050 317.428558,198.691269 
	C317.500153,198.004150 315.612579,196.829102 314.441681,196.361862 
	C312.612091,195.631744 310.620117,195.305878 308.693665,194.821747 
	C300.977875,192.882767 294.394257,194.733719 289.697754,201.257797 
	C285.108246,207.633194 284.598328,214.370132 289.124146,221.191666 
	C290.213074,222.832977 291.443817,224.728577 291.567139,226.576767 
	C291.733246,229.066650 291.720642,233.083221 290.323608,233.878769 
	C286.123657,236.270508 281.236359,237.482071 276.574738,239.025757 
	C273.947662,239.895706 271.038300,240.109650 268.597229,241.311844 
	C256.120697,247.456421 243.845078,254.014877 231.296158,260.003113 
	C227.531815,261.799438 225.697891,264.178864 224.980988,268.067810 
	C222.727371,280.292969 219.922806,292.432159 218.125641,304.720764 
	C216.769073,313.996490 216.394623,323.442474 216.078003,332.829346 
	C215.966324,336.140656 221.221436,340.162750 223.904327,339.488708 
	C227.885727,338.488495 227.889816,335.146881 227.872253,331.940125 
	C227.862244,330.113281 227.489044,328.260590 227.695450,326.467438 
	C227.954819,324.214081 228.639908,322.009735 229.124466,319.858826 
	C233.639404,320.533356 234.110855,327.156891 239.222336,324.693298 
	C236.536087,320.840179 234.220932,317.018555 231.408798,313.606506 
	C227.486343,308.847321 226.885864,303.702148 229.062393,298.240692 
	C232.067108,290.701172 235.609375,283.371490 238.483185,275.785950 
	C240.137817,271.418427 243.123795,269.511505 247.387360,269.030182 
	C252.823593,268.416443 258.273438,267.923004 264.179779,267.331421 
	C264.179779,269.788574 264.146912,271.404358 264.185181,273.018463 
	C264.393616,281.808685 263.892517,290.699310 265.092224,299.353424 
	C265.907166,305.231720 266.915009,310.230164 261.903748,314.693787 
	C260.538147,315.910156 259.870483,318.138641 259.345245,320.031036 
	C256.878357,328.919250 256.151520,337.880768 257.704865,347.095856 
	C258.188080,349.962646 257.944763,354.006775 256.253204,356.002625 
	C248.941269,364.629761 245.012756,374.756805 241.785873,385.274414 
	C240.240967,390.309875 236.938461,392.756165 231.966446,394.016510 
	C228.371719,394.927704 224.606018,396.275391 221.675369,398.450653 
	C216.487473,402.301361 211.832687,406.881287 207.038086,411.247467 
	C202.855270,415.056549 198.855835,419.068146 194.644669,422.844543 
	C191.760544,425.430847 188.616760,426.328430 184.597473,424.807434 
	C180.589218,423.290649 176.231689,422.696808 171.897430,421.667450 
	C171.897430,435.109650 171.640350,447.851929 172.084305,460.569733 
	C172.190796,463.620911 174.377060,466.748077 176.118561,469.518585 
	C176.792206,470.590302 179.063049,471.463318 180.281921,471.153015 
	C181.424866,470.862030 182.824570,468.946106 182.933411,467.646576 
	C183.749710,457.898438 186.751862,449.481049 196.506729,444.481445 
	C192.887741,441.669189 194.631485,439.900970 196.830521,437.941071 
	C211.249084,425.089905 228.549652,417.430786 246.382446,410.992371 
	C252.446426,408.803009 256.139374,405.453552 259.609589,400.059448 
	C266.437561,389.446198 274.539551,379.652588 281.902740,369.803162 
	C286.483429,373.335175 290.182800,376.324249 294.027344,379.113129 
	C297.792908,381.844635 301.580231,384.586334 305.581787,386.943726 
	C313.343445,391.516296 317.118835,397.510773 314.315765,406.795044 
	C313.475311,409.578766 313.871033,412.735748 313.700409,415.721710 
	C313.233002,415.428040 312.765564,415.134338 312.298126,414.840637 
	C309.535370,418.658997 305.176086,422.164978 304.354767,426.363129 
	C302.823975,434.187683 299.092255,440.574158 295.223785,447.172333 
	C292.488831,451.837219 293.855225,455.836060 298.648346,458.597900 
	C304.268738,450.969025 311.087555,444.988647 321.758636,443.815430 
	C322.431458,448.793518 323.580414,453.375671 323.518921,457.941528 
	C323.457397,462.506866 322.830322,467.284851 321.311096,471.564972 
	C318.034760,480.795654 317.733978,480.714142 327.429169,481.367981 
	C329.918945,481.535889 332.431519,481.656342 334.918610,481.521393 
	C344.873108,480.981262 355.034119,481.031769 363.618073,474.878418 
	C365.213867,473.734497 365.911346,471.337341 367.023407,469.518555 
	C365.266968,468.677063 363.581390,467.345367 361.741760,467.079407 
	C353.998077,465.959930 347.113831,463.554596 342.648407,455.716248 
	C342.254822,455.519501 341.861237,455.322723 341.189758,455.188690 
	C341.189758,455.188690 340.993439,454.982300 340.570831,454.461334 
	C339.700684,454.317383 338.830505,454.173431 338.002319,454.003113 
	C338.002319,454.003113 337.968872,454.040863 337.994141,453.234741 
	C337.285492,451.847168 336.576843,450.459564 335.949982,449.018097 
	C335.949982,449.018097 335.919281,449.111084 335.978180,448.203918 
	C335.656403,443.347595 335.338470,438.490997 335.011627,433.635010 
	C334.759766,429.893005 336.171112,427.651276 340.137848,427.959808 
	C340.137848,427.959808 340.198486,427.768127 340.137756,428.468262 
	C340.794128,428.957001 341.450500,429.445740 342.038055,429.980591 
	C342.038055,429.980591 342.044922,429.898041 342.216064,430.383575 
	C342.483215,430.588348 342.750336,430.793121 343.555298,431.261169 
	C344.017731,431.895844 344.480164,432.530518 345.034058,433.747681 
	C345.429260,434.130798 345.824463,434.513916 346.102814,434.926422 
	C346.102814,434.926422 346.108978,434.806061 346.263733,435.341766 
	C346.573303,435.525543 346.882904,435.709320 347.089203,435.912292 
M604.984131,343.484985 
	C605.003235,346.645386 604.881042,349.814362 605.072449,352.964294 
	C605.410828,358.534760 607.854431,361.136383 613.366211,361.728577 
	C615.774475,361.987335 618.233704,361.772064 620.661865,361.772064 
	C620.661865,359.285614 620.661865,357.381866 620.661865,355.478088 
	C620.300964,355.735931 619.940125,355.993774 619.579224,356.251617 
	C618.024475,354.804291 615.246460,353.450287 615.127686,351.893402 
	C614.625549,345.312836 614.914917,338.671875 614.914917,332.047882 
	C617.194275,331.688599 618.945312,331.412567 620.811707,331.118378 
	C620.811707,328.922272 620.811707,326.971222 620.811707,324.841797 
	C618.883179,324.554871 617.130127,324.294037 615.187439,324.005005 
	C614.974976,321.476349 614.773926,319.083801 614.578186,316.753784 
	C611.175781,316.753784 608.264160,316.753784 604.984131,316.753784 
	C604.984131,325.559662 604.984131,334.024841 604.984131,343.484985 
z"/>
<path fill="#FDFDFD" opacity="1.000000" stroke="none" 
	d="
M402.491394,201.191315 
	C412.668030,198.788422 422.727570,195.487595 433.042145,194.142471 
	C471.811096,189.086655 507.516479,197.297241 539.163513,220.822556 
	C568.273254,242.461716 586.557129,271.224976 594.664917,306.515930 
	C594.922241,307.636200 594.874512,308.826569 594.624390,310.372681 
	C592.179504,311.646393 589.572937,312.064819 588.166443,313.590027 
	C587.305847,314.523254 587.671204,317.550537 588.565186,318.945953 
	C590.695312,322.270874 593.841614,321.515930 596.835876,319.883881 
	C596.876160,321.144409 596.916443,322.404938 596.486694,324.088562 
	C593.421448,324.511688 590.826233,324.511688 588.162720,324.511688 
	C588.162720,336.980743 588.162720,348.943024 588.162720,361.202972 
	C590.966248,361.202972 593.437195,361.202972 595.908142,361.202972 
	C592.622131,378.671631 587.072144,395.350372 577.727234,410.540588 
	C554.064514,449.004486 520.133362,472.915314 475.350586,479.569275 
	C461.105530,481.685822 446.262360,479.776794 431.545532,479.525146 
	C434.467926,478.599426 437.681183,478.195923 440.547821,476.977112 
	C442.014435,476.353546 443.306305,474.398285 443.769592,472.784363 
	C443.957489,472.129730 441.850342,470.105225 440.577850,469.877960 
	C437.001129,469.239258 433.317841,469.170837 429.672089,468.952148 
	C425.556091,468.705200 418.860992,462.915070 418.511841,458.792725 
	C417.514008,447.011688 416.409821,435.224304 415.980621,423.416443 
	C415.741180,416.827911 415.902435,409.979401 417.481995,403.646851 
	C418.774689,398.464142 418.535522,394.273407 415.865631,389.925171 
	C411.947632,383.544281 408.284576,376.995697 404.132751,370.772186 
	C398.428986,362.222351 397.767242,353.254242 399.435089,343.275238 
	C401.570496,330.498779 402.756012,317.526886 403.635803,304.590576 
	C404.199158,296.307343 404.317688,293.660156 409.012726,285.230011 
	C410.381805,289.308563 411.227081,293.478485 413.150574,297.071167 
	C414.915314,300.367340 417.799103,305.437866 420.267365,305.482941 
	C425.195190,305.572906 427.338867,300.200195 427.811890,295.729858 
	C428.783356,286.549225 429.296997,277.282806 429.206421,268.059509 
	C429.188965,266.282684 425.693115,264.312775 423.504486,262.889221 
	C422.542511,262.263519 420.835083,262.783875 419.190857,262.783875 
	C418.453156,260.853180 417.226135,258.278168 416.485229,255.570160 
	C414.954407,249.974899 411.389008,246.794128 405.774231,245.766052 
	C395.607269,243.904434 396.346863,241.500565 396.644104,234.378418 
	C399.279480,233.856842 402.867065,234.188004 403.843628,232.748199 
	C406.270538,229.170044 407.516327,224.788239 409.197723,220.713211 
	C409.298981,220.467880 409.085846,220.074127 408.977692,219.763855 
	C406.819214,213.571747 404.654694,207.381744 402.491394,201.191315 
M473.989136,347.326813 
	C473.907318,348.773956 473.825470,350.221100 473.736267,351.798645 
	C471.340332,351.798645 469.295807,351.798645 466.712524,351.798645 
	C466.712524,342.571716 466.712524,333.694153 466.712524,324.779755 
	C463.230408,324.779755 460.294464,324.779755 456.996979,324.779755 
	C456.996979,332.829315 456.941742,340.624176 457.011841,348.417938 
	C457.088623,356.955597 460.258514,359.821503 468.754974,359.107513 
	C470.377563,358.971130 471.974670,358.531708 473.989166,358.156586 
	C473.989166,360.027954 474.155365,361.857666 473.923065,363.635315 
	C473.796082,364.607117 473.134979,366.134399 472.468750,366.279205 
	C471.120056,366.572357 468.565674,366.501404 468.318695,365.871185 
	C466.079956,360.158203 461.681763,363.834839 458.315643,362.892365 
	C458.133148,370.760468 460.509369,373.338531 467.717072,373.466766 
	C469.880554,373.505280 472.046204,373.512939 474.209320,373.465515 
	C480.859406,373.319855 483.612915,370.792023 483.810364,364.066772 
	C484.020355,356.914429 483.867737,349.751434 483.870544,342.593079 
	C483.872894,336.677124 483.871002,330.761169 483.871002,324.759552 
	C480.278870,324.759552 477.346924,324.759552 473.992859,324.759552 
	C473.992859,332.116180 473.992859,339.237946 473.989136,347.326813 
M441.959595,311.958618 
	C438.461060,311.955383 434.960663,311.877838 431.464447,311.966339 
	C426.245239,312.098480 423.456329,314.589569 423.087128,319.869080 
	C422.797607,324.009766 422.819458,328.196686 423.051147,332.343597 
	C423.394745,338.492126 426.102234,340.915619 432.235352,341.054688 
	C440.436493,341.240662 440.436157,341.240662 440.307190,349.345490 
	C440.299255,349.845184 440.514374,350.537567 440.264832,350.811157 
	C439.248077,351.925812 438.231781,353.559052 436.961304,353.836060 
	C430.882111,355.161285 433.268433,349.651764 432.078186,347.219574 
	C428.924377,347.219574 425.989258,347.219574 423.081879,347.219574 
	C422.337280,359.236511 424.716431,361.836731 436.264374,361.811035 
	C438.420471,361.806244 440.589935,361.731110 442.729218,361.482117 
	C447.209808,360.960693 449.641357,358.187927 449.871277,353.850555 
	C450.126495,349.034851 450.157837,344.177765 449.834595,339.369110 
	C449.506348,334.485657 446.593140,332.051392 441.592285,331.841248 
	C439.596588,331.757385 437.534119,332.108429 435.618530,331.706512 
	C434.473907,331.466309 432.794281,330.246033 432.675232,329.300171 
	C432.295929,326.286285 432.534668,323.194580 432.534668,320.297791 
	C435.449554,320.297791 437.385345,320.297791 439.573883,320.297791 
	C439.743134,321.963593 439.886353,323.373199 440.033997,324.826477 
	C443.228943,324.826477 446.160004,324.826477 449.059875,324.826477 
	C450.001678,316.835632 448.759827,314.335663 441.959595,311.958618 
M501.040588,331.827148 
	C503.154999,331.435425 505.269409,331.043701 507.993713,330.539001 
	C507.993713,341.181458 507.993713,350.909821 507.993713,360.670959 
	C511.548645,360.670959 514.591919,360.670959 517.831116,360.670959 
	C517.831116,351.189240 518.020569,342.047302 517.767639,332.917664 
	C517.585022,326.324677 514.561096,323.652802 507.899963,323.868103 
	C502.375031,324.046692 496.863739,324.646576 491.295715,325.063629 
	C491.295715,336.956604 491.295715,348.845306 491.295715,360.613953 
	C494.654449,360.613953 497.693787,360.613953 500.894287,360.613953 
	C500.894287,351.063171 500.894287,341.914551 501.040588,331.827148 
M525.180603,331.184784 
	C525.121216,338.168182 524.905518,345.154755 525.047729,352.134064 
	C525.182190,358.733917 527.964539,361.412292 534.549316,361.817871 
	C536.206543,361.919952 537.875244,361.840057 539.538635,361.836060 
	C550.074280,361.810822 553.439392,357.577301 551.267273,347.194794 
	C548.187012,347.194794 545.133484,347.194794 541.971497,347.194794 
	C541.971497,349.247437 542.358215,351.046204 541.836121,352.523895 
	C541.485413,353.516602 539.836060,354.662842 538.789429,354.642181 
	C537.483093,354.616333 535.102478,353.504150 535.074890,352.788269 
	C534.796814,345.560364 534.905457,338.317596 534.905457,331.142639 
	C537.637451,331.142639 539.567993,331.142639 541.708557,331.142639 
	C541.919739,333.805023 542.109253,336.194305 542.300110,338.600159 
	C545.591675,338.600159 548.513794,338.600159 551.395935,338.600159 
	C552.976257,326.896149 550.341919,323.807953 539.015808,323.809723 
	C537.352417,323.809998 535.688843,323.834473 534.025574,323.819550 
	C529.461182,323.778534 526.373718,325.686951 525.180603,331.184784 
M572.433960,321.442200 
	C575.038025,321.442200 577.642029,321.442200 580.218933,321.442200 
	C580.218933,318.171753 580.218933,315.574402 580.218933,312.794830 
	C573.016479,312.794830 566.088989,312.794830 559.140076,312.794830 
	C559.140076,328.942047 559.140076,344.850189 559.140076,360.805298 
	C562.536438,360.805298 565.637695,360.805298 569.166748,360.805298 
	C569.166748,354.548828 569.166748,348.470673 569.166748,341.939850 
	C572.826538,341.939850 576.075562,341.939850 579.272278,341.939850 
	C579.272278,338.748627 579.272278,336.046936 579.272278,333.019531 
	C575.756775,333.019531 572.646057,333.019531 569.157349,333.019531 
	C569.157349,329.725922 568.986694,326.746490 569.264404,323.809479 
	C569.344666,322.959991 570.712463,322.232269 572.433960,321.442200 
z"/>
<path fill="#020302" opacity="1.000000" stroke="none" 
	d="
M402.177979,201.070190 
	C404.654694,207.381744 406.819214,213.571747 408.977692,219.763855 
	C409.085846,220.074127 409.298981,220.467880 409.197723,220.713211 
	C407.516327,224.788239 406.270538,229.170044 403.843628,232.748199 
	C402.867065,234.188004 399.279480,233.856842 396.644104,234.378418 
	C396.346863,241.500565 395.607269,243.904434 405.774231,245.766052 
	C411.389008,246.794128 414.954407,249.974899 416.485229,255.570160 
	C417.226135,258.278168 418.453156,260.853180 419.190857,262.783875 
	C420.835083,262.783875 422.542511,262.263519 423.504486,262.889221 
	C425.693115,264.312775 429.188965,266.282684 429.206421,268.059509 
	C429.296997,277.282806 428.783356,286.549225 427.811890,295.729858 
	C427.338867,300.200195 425.195190,305.572906 420.267365,305.482941 
	C417.799103,305.437866 414.915314,300.367340 413.150574,297.071167 
	C411.227081,293.478485 410.381805,289.308563 409.012726,285.230011 
	C404.317688,293.660156 404.199158,296.307343 403.635803,304.590576 
	C402.756012,317.526886 401.570496,330.498779 399.435089,343.275238 
	C397.767242,353.254242 398.428986,362.222351 404.132751,370.772186 
	C408.284576,376.995697 411.947632,383.544281 415.865631,389.925171 
	C418.535522,394.273407 418.774689,398.464142 417.481995,403.646851 
	C415.902435,409.979401 415.741180,416.827911 415.980621,423.416443 
	C416.409821,435.224304 417.514008,447.011688 418.511841,458.792725 
	C418.860992,462.915070 425.556091,468.705200 429.672089,468.952148 
	C433.317841,469.170837 437.001129,469.239258 440.577850,469.877960 
	C441.850342,470.105225 443.957489,472.129730 443.769592,472.784363 
	C443.306305,474.398285 442.014435,476.353546 440.547821,476.977112 
	C437.681183,478.195923 434.467926,478.599426 431.113556,479.584534 
	C423.751587,480.858917 416.573334,482.357849 409.817047,478.863434 
	C408.127808,477.989685 407.212982,475.618652 405.959076,473.155029 
	C407.699219,466.189636 409.834106,460.165161 407.169769,453.553101 
	C400.751038,437.623749 399.174469,421.057709 401.360657,404.066162 
	C401.537018,402.695374 401.447052,400.720520 400.616760,399.884888 
	C396.107635,395.346619 391.326965,391.078094 387.081024,387.127258 
	C382.327698,394.348511 377.711578,401.597687 372.810242,408.648560 
	C371.511932,410.516327 369.569458,412.279694 367.522766,413.225128 
	C358.054016,417.599182 348.444244,421.667999 338.492004,425.861633 
	C336.689514,427.038849 334.030670,428.251556 334.075592,429.353973 
	C334.344788,435.953766 335.236389,442.528168 335.919281,449.111084 
	C335.919281,449.111084 335.949982,449.018097 335.915710,449.396667 
	C336.577240,451.197113 337.273041,452.618988 337.968872,454.040863 
	C337.968872,454.040863 338.002319,454.003113 338.103607,454.353546 
	C339.134399,454.796753 340.063934,454.889526 340.993439,454.982300 
	C340.993439,454.982300 341.189758,455.188690 341.495026,455.435425 
	C342.164001,455.903778 342.527679,456.125336 342.891388,456.346924 
	C347.113831,463.554596 353.998077,465.959930 361.741760,467.079407 
	C363.581390,467.345367 365.266968,468.677063 367.023407,469.518555 
	C365.911346,471.337341 365.213867,473.734497 363.618073,474.878418 
	C355.034119,481.031769 344.873108,480.981262 334.918610,481.521393 
	C332.431519,481.656342 329.918945,481.535889 327.429169,481.367981 
	C317.733978,480.714142 318.034760,480.795654 321.311096,471.564972 
	C322.830322,467.284851 323.457397,462.506866 323.518921,457.941528 
	C323.580414,453.375671 322.431458,448.793518 321.758636,443.815430 
	C311.087555,444.988647 304.268738,450.969025 298.648346,458.597900 
	C293.855225,455.836060 292.488831,451.837219 295.223785,447.172333 
	C299.092255,440.574158 302.823975,434.187683 304.354767,426.363129 
	C305.176086,422.164978 309.535370,418.658997 312.298126,414.840637 
	C312.765564,415.134338 313.233002,415.428040 313.700409,415.721710 
	C313.871033,412.735748 313.475311,409.578766 314.315765,406.795044 
	C317.118835,397.510773 313.343445,391.516296 305.581787,386.943726 
	C301.580231,384.586334 297.792908,381.844635 294.027344,379.113129 
	C290.182800,376.324249 286.483429,373.335175 281.902740,369.803162 
	C274.539551,379.652588 266.437561,389.446198 259.609589,400.059448 
	C256.139374,405.453552 252.446426,408.803009 246.382446,410.992371 
	C228.549652,417.430786 211.249084,425.089905 196.830521,437.941071 
	C194.631485,439.900970 192.887741,441.669189 196.506729,444.481445 
	C186.751862,449.481049 183.749710,457.898438 182.933411,467.646576 
	C182.824570,468.946106 181.424866,470.862030 180.281921,471.153015 
	C179.063049,471.463318 176.792206,470.590302 176.118561,469.518585 
	C174.377060,466.748077 172.190796,463.620911 172.084305,460.569733 
	C171.640350,447.851929 171.897430,435.109650 171.897430,421.667450 
	C176.231689,422.696808 180.589218,423.290649 184.597473,424.807434 
	C188.616760,426.328430 191.760544,425.430847 194.644669,422.844543 
	C198.855835,419.068146 202.855270,415.056549 207.038086,411.247467 
	C211.832687,406.881287 216.487473,402.301361 221.675369,398.450653 
	C224.606018,396.275391 228.371719,394.927704 231.966446,394.016510 
	C236.938461,392.756165 240.240967,390.309875 241.785873,385.274414 
	C245.012756,374.756805 248.941269,364.629761 256.253204,356.002625 
	C257.944763,354.006775 258.188080,349.962646 257.704865,347.095856 
	C256.151520,337.880768 256.878357,328.919250 259.345245,320.031036 
	C259.870483,318.138641 260.538147,315.910156 261.903748,314.693787 
	C266.915009,310.230164 265.907166,305.231720 265.092224,299.353424 
	C263.892517,290.699310 264.393616,281.808685 264.185181,273.018463 
	C264.146912,271.404358 264.179779,269.788574 264.179779,267.331421 
	C258.273438,267.923004 252.823593,268.416443 247.387360,269.030182 
	C243.123795,269.511505 240.137817,271.418427 238.483185,275.785950 
	C235.609375,283.371490 232.067108,290.701172 229.062393,298.240692 
	C226.885864,303.702148 227.486343,308.847321 231.408798,313.606506 
	C234.220932,317.018555 236.536087,320.840179 239.222336,324.693298 
	C234.110855,327.156891 233.639404,320.533356 229.124466,319.858826 
	C228.639908,322.009735 227.954819,324.214081 227.695450,326.467438 
	C227.489044,328.260590 227.862244,330.113281 227.872253,331.940125 
	C227.889816,335.146881 227.885727,338.488495 223.904327,339.488708 
	C221.221436,340.162750 215.966324,336.140656 216.078003,332.829346 
	C216.394623,323.442474 216.769073,313.996490 218.125641,304.720764 
	C219.922806,292.432159 222.727371,280.292969 224.980988,268.067810 
	C225.697891,264.178864 227.531815,261.799438 231.296158,260.003113 
	C243.845078,254.014877 256.120697,247.456421 268.597229,241.311844 
	C271.038300,240.109650 273.947662,239.895706 276.574738,239.025757 
	C281.236359,237.482071 286.123657,236.270508 290.323608,233.878769 
	C291.720642,233.083221 291.733246,229.066650 291.567139,226.576767 
	C291.443817,224.728577 290.213074,222.832977 289.124146,221.191666 
	C284.598328,214.370132 285.108246,207.633194 289.697754,201.257797 
	C294.394257,194.733719 300.977875,192.882767 308.693665,194.821747 
	C310.620117,195.305878 312.612091,195.631744 314.441681,196.361862 
	C315.612579,196.829102 317.500153,198.004150 317.428558,198.691269 
	C316.764984,205.061050 325.737671,209.149445 321.554565,216.320816 
	C321.270996,216.806946 322.270752,218.045624 322.680206,218.931244 
	C323.351288,220.382690 324.966064,222.239655 324.543030,223.212402 
	C322.487762,227.938019 319.983398,232.482513 317.385803,236.944275 
	C316.947662,237.696854 315.224335,237.626205 314.184479,238.123489 
	C313.028320,238.676376 311.974762,239.443939 310.101135,240.594055 
	C311.892944,241.839584 313.134735,242.756256 314.428436,243.592682 
	C319.624725,246.952316 323.816498,250.931870 324.572021,257.611237 
	C324.770721,259.367767 326.159302,260.989716 327.186584,263.336975 
	C329.633270,266.925049 331.894836,269.849579 334.084442,272.681122 
	C343.644623,266.096375 351.656952,258.447357 350.860718,245.133469 
	C351.357880,245.198578 351.855011,245.263672 352.352142,245.328781 
	C353.169739,247.450790 353.987305,249.572800 354.824188,251.744934 
	C356.274628,250.459183 357.789124,248.925583 359.500977,247.658615 
	C360.911316,246.614838 363.289703,244.752731 363.979584,245.199249 
	C369.348694,248.674454 372.982697,244.777802 376.665253,242.364517 
	C384.854797,236.997635 384.307312,231.961014 375.229187,227.461090 
	C374.788788,227.368729 374.511139,227.456726 374.233459,227.544724 
	C374.468597,227.715637 374.703705,227.886551 374.931000,228.491821 
	C376.100098,234.592209 374.262970,237.129791 368.161804,239.254074 
	C365.471161,234.564331 362.873718,230.036957 360.276245,225.509598 
	C356.291138,218.467239 359.036774,211.859100 362.416748,205.845871 
	C363.587585,203.762833 367.531586,202.492279 370.332367,202.244125 
	C374.685394,201.858459 378.463470,200.929123 382.456879,198.877823 
	C388.996277,195.518723 395.913696,195.442780 402.177979,201.070190 
M319.110199,282.105469 
	C318.265900,281.043884 317.421600,279.982300 315.962952,278.148315 
	C312.770203,286.306030 309.535706,293.365082 307.236908,300.716736 
	C303.464630,312.780426 304.181793,326.053497 297.424744,337.406372 
	C296.881195,338.319611 298.149719,341.048492 299.323090,342.101318 
	C302.254578,344.731628 305.616119,346.882721 309.087402,349.833984 
	C317.211090,359.946106 325.273438,370.108429 333.487549,380.146545 
	C336.957397,384.386871 337.506897,388.524780 335.847321,393.921600 
	C334.102844,399.594360 334.022644,405.778900 333.122620,412.423218 
	C340.390320,409.282074 346.543274,406.875549 352.462769,403.990173 
	C357.927643,401.326355 361.753906,397.294739 362.395569,390.688568 
	C363.263641,381.751190 364.590851,372.858673 365.705627,363.944946 
	C366.165619,360.266663 364.836945,358.045502 360.992889,357.003967 
	C359.260620,356.534607 356.830688,354.794220 356.580444,353.315247 
	C354.734222,342.402771 352.055359,331.368805 359.212799,321.060638 
	C361.684052,317.501434 363.376648,313.401520 365.301331,309.781128 
	C356.864227,306.570465 349.143005,303.632202 341.496185,300.722290 
	C336.428375,305.567261 330.966125,304.036560 327.912079,297.678436 
	C325.429077,292.509216 322.102936,287.745026 319.110199,282.105469 
M365.619690,299.041473 
	C365.744934,297.278503 366.338806,295.392670 365.914307,293.773865 
	C364.070953,286.744263 361.930695,279.792511 359.913116,272.863251 
	C350.119507,274.670959 351.583130,284.091339 346.390137,290.224365 
	C353.033173,293.493805 359.015808,296.438232 365.619690,299.041473 
z"/>
<path fill="#FBFDFC" opacity="1.000000" stroke="none" 
	d="
M338.885010,425.846191 
	C348.444244,421.667999 358.054016,417.599182 367.522766,413.225128 
	C369.569458,412.279694 371.511932,410.516327 372.810242,408.648560 
	C377.711578,401.597687 382.327698,394.348511 387.081024,387.127258 
	C391.326965,391.078094 396.107635,395.346619 400.616760,399.884888 
	C401.447052,400.720520 401.537018,402.695374 401.360657,404.066162 
	C399.174469,421.057709 400.751038,437.623749 407.169769,453.553101 
	C409.834106,460.165161 407.699219,466.189636 405.891235,472.781647 
	C395.598785,468.343323 385.371826,463.537415 375.200378,458.616608 
	C373.289093,457.691986 371.599579,456.308960 369.365662,454.806335 
	C368.610962,454.331055 368.298309,454.186951 367.985626,454.042847 
	C367.985626,454.042847 367.995300,453.995819 367.837769,453.731750 
	C366.792633,452.960510 365.904999,452.453369 365.017395,451.946228 
	C364.816132,451.683807 364.614899,451.421387 364.038788,450.801971 
	C362.465942,449.566589 361.267975,448.688202 360.070007,447.809814 
	C360.010406,447.480103 359.830902,447.240021 359.209656,446.790344 
	C358.591644,446.324799 358.295532,446.158508 357.999390,445.992188 
	C357.793304,445.725006 357.587219,445.457794 357.015228,444.849731 
	C356.144104,444.253723 355.638885,443.998566 355.133667,443.743408 
	C355.133667,443.743408 355.098022,443.867706 355.088318,443.590027 
	C354.759430,443.138336 354.440277,442.964325 354.121124,442.790314 
	C354.121124,442.790314 354.156433,442.883057 354.090759,442.532684 
	C352.071381,440.385803 350.117737,438.589264 348.164062,436.792755 
	C348.164062,436.792755 348.099457,436.863251 348.074402,436.606506 
	C347.735077,436.169373 347.420837,435.989044 347.106598,435.808685 
	C347.106598,435.808685 347.089203,435.912292 347.070343,435.629944 
	C346.737335,435.167053 346.423157,434.986542 346.108978,434.806061 
	C346.108978,434.806061 346.102814,434.926422 346.125183,434.622772 
	C345.745880,433.934509 345.344208,433.549866 344.942566,433.165222 
	C344.480164,432.530518 344.017731,431.895844 343.228333,430.868286 
	C342.615875,430.282928 342.330414,430.090485 342.044922,429.898010 
	C342.044922,429.898041 342.038055,429.980591 342.000732,429.659058 
	C341.375122,428.814392 340.786804,428.291260 340.198486,427.768127 
	C340.198486,427.768127 340.137848,427.959808 340.132599,427.570129 
	C339.713226,426.735687 339.299133,426.290924 338.885010,425.846191 
z"/>
<path fill="#F5F9F6" opacity="1.000000" stroke="none" 
	d="
M360.162598,225.868958 
	C362.873718,230.036957 365.471161,234.564331 368.161804,239.254074 
	C374.262970,237.129791 376.100098,234.592209 375.043915,228.387421 
	C375.164673,227.848648 375.391937,227.641449 375.391937,227.641449 
	C384.307312,231.961014 384.854797,236.997635 376.665253,242.364517 
	C372.982697,244.777802 369.348694,248.674454 363.979584,245.199249 
	C363.289703,244.752731 360.911316,246.614838 359.500977,247.658615 
	C357.789124,248.925583 356.274628,250.459183 354.824188,251.744934 
	C353.987305,249.572800 353.169739,247.450790 352.352142,245.328781 
	C351.855011,245.263672 351.357880,245.198578 350.860718,245.133469 
	C351.656952,258.447357 343.644623,266.096375 334.084442,272.681122 
	C331.894836,269.849579 329.633270,266.925049 327.353973,263.653778 
	C328.210968,262.683563 329.398010,262.251129 329.913818,261.408020 
	C338.078552,248.062225 348.324829,236.516190 360.162598,225.868958 
z"/>
<path fill="#020E06" opacity="1.000000" stroke="none" 
	d="
M604.984131,342.987518 
	C604.984131,334.024841 604.984131,325.559662 604.984131,316.753784 
	C608.264160,316.753784 611.175781,316.753784 614.578186,316.753784 
	C614.773926,319.083801 614.974976,321.476349 615.187439,324.005005 
	C617.130127,324.294037 618.883179,324.554871 620.811707,324.841797 
	C620.811707,326.971222 620.811707,328.922272 620.811707,331.118378 
	C618.945312,331.412567 617.194275,331.688599 614.914917,332.047882 
	C614.914917,338.671875 614.625549,345.312836 615.127686,351.893402 
	C615.246460,353.450287 618.024475,354.804291 619.579224,356.251617 
	C619.940125,355.993774 620.300964,355.735931 620.661865,355.478088 
	C620.661865,357.381866 620.661865,359.285614 620.661865,361.772064 
	C618.233704,361.772064 615.774475,361.987335 613.366211,361.728577 
	C607.854431,361.136383 605.410828,358.534760 605.072449,352.964294 
	C604.881042,349.814362 605.003235,346.645386 604.984131,342.987518 
z"/>
<path fill="#020E06" opacity="1.000000" stroke="none" 
	d="
M596.303772,361.066833 
	C593.437195,361.202972 590.966248,361.202972 588.162720,361.202972 
	C588.162720,348.943024 588.162720,336.980743 588.162720,324.511688 
	C590.826233,324.511688 593.421448,324.511688 596.482117,324.467407 
	C597.207581,332.951599 597.599487,341.479004 597.665771,350.008972 
	C597.694092,353.646790 597.042175,357.289948 596.303772,361.066833 
z"/>
<path fill="#0B0B0B" opacity="1.000000" stroke="none" 
	d="
M596.944519,319.520233 
	C593.841614,321.515930 590.695312,322.270874 588.565186,318.945953 
	C587.671204,317.550537 587.305847,314.523254 588.166443,313.590027 
	C589.572937,312.064819 592.179504,311.646393 594.609375,310.787659 
	C598.004211,312.996765 598.993530,315.705414 596.944519,319.520233 
z"/>
<path fill="#54D583" opacity="1.000000" stroke="none" 
	d="
M338.492004,425.861633 
	C339.299133,426.290924 339.713226,426.735687 340.187012,427.485596 
	C336.171112,427.651276 334.759766,429.893005 335.011627,433.635010 
	C335.338470,438.490997 335.656403,443.347595 335.948730,448.657501 
	C335.236389,442.528168 334.344788,435.953766 334.075592,429.353973 
	C334.030670,428.251556 336.689514,427.038849 338.492004,425.861633 
z"/>
<path fill="#54D583" opacity="1.000000" stroke="none" 
	d="
M348.135925,437.155701 
	C350.117737,438.589264 352.071381,440.385803 354.125397,442.497162 
	C352.186401,441.047577 350.147095,439.283112 348.135925,437.155701 
z"/>
<path fill="#54D583" opacity="1.000000" stroke="none" 
	d="
M337.981506,453.637817 
	C337.273041,452.618988 336.577240,451.197113 335.874817,449.423615 
	C336.576843,450.459564 337.285492,451.847168 337.981506,453.637817 
z"/>
<path fill="#54D583" opacity="1.000000" stroke="none" 
	d="
M360.078033,448.177795 
	C361.267975,448.688202 362.465942,449.566589 363.791321,450.739136 
	C362.641174,450.204132 361.363617,449.374969 360.078033,448.177795 
z"/>
<path fill="#54D583" opacity="1.000000" stroke="none" 
	d="
M365.058472,452.293640 
	C365.904999,452.453369 366.792633,452.960510 367.818756,453.746399 
	C367.004700,453.563782 366.052124,453.102417 365.058472,452.293640 
z"/>
<path fill="#54D583" opacity="1.000000" stroke="none" 
	d="
M340.168121,428.118195 
	C340.786804,428.291260 341.375122,428.814392 342.035156,429.636017 
	C341.450500,429.445740 340.794128,428.957001 340.168121,428.118195 
z"/>
<path fill="#54D583" opacity="1.000000" stroke="none" 
	d="
M340.782135,454.721802 
	C340.063934,454.889526 339.134399,454.796753 338.082642,454.366730 
	C338.830505,454.173431 339.700684,454.317383 340.782135,454.721802 
z"/>
<path fill="#54D583" opacity="1.000000" stroke="none" 
	d="
M344.988312,433.456451 
	C345.344208,433.549866 345.745880,433.934509 346.183624,434.608063 
	C345.824463,434.513916 345.429260,434.130798 344.988312,433.456451 
z"/>
<path fill="#54D583" opacity="1.000000" stroke="none" 
	d="
M355.217712,444.033691 
	C355.638885,443.998566 356.144104,444.253723 356.765503,444.776794 
	C356.355042,444.804443 355.828400,444.564209 355.217712,444.033691 
z"/>
<path fill="#54D583" opacity="1.000000" stroke="none" 
	d="
M342.769897,456.031586 
	C342.527679,456.125336 342.164001,455.903778 341.633972,455.404053 
	C341.861237,455.322723 342.254822,455.519501 342.769897,456.031586 
z"/>
<path fill="#54D583" opacity="1.000000" stroke="none" 
	d="
M368.118225,454.265503 
	C368.298309,454.186951 368.610962,454.331055 369.040161,454.715576 
	C368.854767,454.800049 368.552795,454.644073 368.118225,454.265503 
z"/>
<path fill="#54D583" opacity="1.000000" stroke="none" 
	d="
M358.113159,446.221130 
	C358.295532,446.158508 358.591644,446.324799 358.984436,446.735779 
	C358.796387,446.803680 358.511658,446.626892 358.113159,446.221130 
z"/>
<path fill="#54D583" opacity="1.000000" stroke="none" 
	d="
M354.197754,443.061401 
	C354.440277,442.964325 354.759430,443.138336 355.152710,443.584595 
	C354.909393,443.682068 354.591888,443.507263 354.197754,443.061401 
z"/>
<path fill="#54D583" opacity="1.000000" stroke="none" 
	d="
M347.184570,436.075989 
	C347.420837,435.989044 347.735077,436.169373 348.119385,436.622620 
	C347.880493,436.711426 347.571533,436.527344 347.184570,436.075989 
z"/>
<path fill="#54D583" opacity="1.000000" stroke="none" 
	d="
M346.186340,435.073914 
	C346.423157,434.986542 346.737335,435.167053 347.122009,435.620331 
	C346.882904,435.709320 346.573303,435.525543 346.186340,435.073914 
z"/>
<path fill="#54D583" opacity="1.000000" stroke="none" 
	d="
M342.130493,430.140808 
	C342.330414,430.090485 342.615875,430.282928 342.959412,430.736633 
	C342.750336,430.793121 342.483215,430.588348 342.130493,430.140808 
z"/>
<path fill="#0B0B0B" opacity="1.000000" stroke="none" 
	d="
M473.990997,346.843262 
	C473.992859,339.237946 473.992859,332.116180 473.992859,324.759552 
	C477.346924,324.759552 480.278870,324.759552 483.871002,324.759552 
	C483.871002,330.761169 483.872894,336.677124 483.870544,342.593079 
	C483.867737,349.751434 484.020355,356.914429 483.810364,364.066772 
	C483.612915,370.792023 480.859406,373.319855 474.209320,373.465515 
	C472.046204,373.512939 469.880554,373.505280 467.717072,373.466766 
	C460.509369,373.338531 458.133148,370.760468 458.315643,362.892365 
	C461.681763,363.834839 466.079956,360.158203 468.318695,365.871185 
	C468.565674,366.501404 471.120056,366.572357 472.468750,366.279205 
	C473.134979,366.134399 473.796082,364.607117 473.923065,363.635315 
	C474.155365,361.857666 473.989166,360.027954 473.989166,358.156586 
	C471.974670,358.531708 470.377563,358.971130 468.754974,359.107513 
	C460.258514,359.821503 457.088623,356.955597 457.011841,348.417938 
	C456.941742,340.624176 456.996979,332.829315 456.996979,324.779755 
	C460.294464,324.779755 463.230408,324.779755 466.712524,324.779755 
	C466.712524,333.694153 466.712524,342.571716 466.712524,351.798645 
	C469.295807,351.798645 471.340332,351.798645 473.736267,351.798645 
	C473.825470,350.221100 473.907318,348.773956 473.990997,346.843262 
z"/>
<path fill="#070707" opacity="1.000000" stroke="none" 
	d="
M442.394714,311.983093 
	C448.759827,314.335663 450.001678,316.835632 449.059875,324.826477 
	C446.160004,324.826477 443.228943,324.826477 440.033997,324.826477 
	C439.886353,323.373199 439.743134,321.963593 439.573883,320.297791 
	C437.385345,320.297791 435.449554,320.297791 432.534668,320.297791 
	C432.534668,323.194580 432.295929,326.286285 432.675232,329.300171 
	C432.794281,330.246033 434.473907,331.466309 435.618530,331.706512 
	C437.534119,332.108429 439.596588,331.757385 441.592285,331.841248 
	C446.593140,332.051392 449.506348,334.485657 449.834595,339.369110 
	C450.157837,344.177765 450.126495,349.034851 449.871277,353.850555 
	C449.641357,358.187927 447.209808,360.960693 442.729218,361.482117 
	C440.589935,361.731110 438.420471,361.806244 436.264374,361.811035 
	C424.716431,361.836731 422.337280,359.236511 423.081879,347.219574 
	C425.989258,347.219574 428.924377,347.219574 432.078186,347.219574 
	C433.268433,349.651764 430.882111,355.161285 436.961304,353.836060 
	C438.231781,353.559052 439.248077,351.925812 440.264832,350.811157 
	C440.514374,350.537567 440.299255,349.845184 440.307190,349.345490 
	C440.436157,341.240662 440.436493,341.240662 432.235352,341.054688 
	C426.102234,340.915619 423.394745,338.492126 423.051147,332.343597 
	C422.819458,328.196686 422.797607,324.009766 423.087128,319.869080 
	C423.456329,314.589569 426.245239,312.098480 431.464447,311.966339 
	C434.960663,311.877838 438.461060,311.955383 442.394714,311.983093 
z"/>
<path fill="#0B0B0B" opacity="1.000000" stroke="none" 
	d="
M500.967438,332.296509 
	C500.894287,341.914551 500.894287,351.063171 500.894287,360.613953 
	C497.693787,360.613953 494.654449,360.613953 491.295715,360.613953 
	C491.295715,348.845306 491.295715,336.956604 491.295715,325.063629 
	C496.863739,324.646576 502.375031,324.046692 507.899963,323.868103 
	C514.561096,323.652802 517.585022,326.324677 517.767639,332.917664 
	C518.020569,342.047302 517.831116,351.189240 517.831116,360.670959 
	C514.591919,360.670959 511.548645,360.670959 507.993713,360.670959 
	C507.993713,350.909821 507.993713,341.181458 507.993713,330.539001 
	C505.269409,331.043701 503.154999,331.435425 500.967438,332.296509 
z"/>
<path fill="#0C0C0C" opacity="1.000000" stroke="none" 
	d="
M525.264893,330.765137 
	C526.373718,325.686951 529.461182,323.778534 534.025574,323.819550 
	C535.688843,323.834473 537.352417,323.809998 539.015808,323.809723 
	C550.341919,323.807953 552.976257,326.896149 551.395935,338.600159 
	C548.513794,338.600159 545.591675,338.600159 542.300110,338.600159 
	C542.109253,336.194305 541.919739,333.805023 541.708557,331.142639 
	C539.567993,331.142639 537.637451,331.142639 534.905457,331.142639 
	C534.905457,338.317596 534.796814,345.560364 535.074890,352.788269 
	C535.102478,353.504150 537.483093,354.616333 538.789429,354.642181 
	C539.836060,354.662842 541.485413,353.516602 541.836121,352.523895 
	C542.358215,351.046204 541.971497,349.247437 541.971497,347.194794 
	C545.133484,347.194794 548.187012,347.194794 551.267273,347.194794 
	C553.439392,357.577301 550.074280,361.810822 539.538635,361.836060 
	C537.875244,361.840057 536.206543,361.919952 534.549316,361.817871 
	C527.964539,361.412292 525.182190,358.733917 525.047729,352.134064 
	C524.905518,345.154755 525.121216,338.168182 525.264893,330.765137 
z"/>
<path fill="#020302" opacity="1.000000" stroke="none" 
	d="
M571.961975,321.445465 
	C570.712463,322.232269 569.344666,322.959991 569.264404,323.809479 
	C568.986694,326.746490 569.157349,329.725922 569.157349,333.019531 
	C572.646057,333.019531 575.756775,333.019531 579.272278,333.019531 
	C579.272278,336.046936 579.272278,338.748627 579.272278,341.939850 
	C576.075562,341.939850 572.826538,341.939850 569.166748,341.939850 
	C569.166748,348.470673 569.166748,354.548828 569.166748,360.805298 
	C565.637695,360.805298 562.536438,360.805298 559.140076,360.805298 
	C559.140076,344.850189 559.140076,328.942047 559.140076,312.794830 
	C566.088989,312.794830 573.016479,312.794830 580.218933,312.794830 
	C580.218933,315.574402 580.218933,318.171753 580.218933,321.442200 
	C577.642029,321.442200 575.038025,321.442200 571.961975,321.445465 
z"/>
<path fill="#FCFDFD" opacity="1.000000" stroke="none" 
	d="
M319.150726,282.801208 
	C322.102936,287.745026 325.429077,292.509216 327.912079,297.678436 
	C330.966125,304.036560 336.428375,305.567261 341.496185,300.722290 
	C349.143005,303.632202 356.864227,306.570465 365.301331,309.781128 
	C363.376648,313.401520 361.684052,317.501434 359.212799,321.060638 
	C352.055359,331.368805 354.734222,342.402771 356.580444,353.315247 
	C356.830688,354.794220 359.260620,356.534607 360.992889,357.003967 
	C364.836945,358.045502 366.165619,360.266663 365.705627,363.944946 
	C364.590851,372.858673 363.263641,381.751190 362.395569,390.688568 
	C361.753906,397.294739 357.927643,401.326355 352.462769,403.990173 
	C346.543274,406.875549 340.390320,409.282074 333.122620,412.423218 
	C334.022644,405.778900 334.102844,399.594360 335.847321,393.921600 
	C337.506897,388.524780 336.957397,384.386871 333.487549,380.146545 
	C325.273438,370.108429 317.211090,359.946106 309.032227,349.051270 
	C307.967316,325.762177 310.852051,303.861023 319.150726,282.801208 
z"/>
<path fill="#54D583" opacity="1.000000" stroke="none" 
	d="
M319.130463,282.453339 
	C310.852051,303.861023 307.967316,325.762177 308.891083,348.747314 
	C305.616119,346.882721 302.254578,344.731628 299.323090,342.101318 
	C298.149719,341.048492 296.881195,338.319611 297.424744,337.406372 
	C304.181793,326.053497 303.464630,312.780426 307.236908,300.716736 
	C309.535706,293.365082 312.770203,286.306030 315.962952,278.148315 
	C317.421600,279.982300 318.265900,281.043884 319.130463,282.453339 
z"/>
<path fill="#F5F9F6" opacity="1.000000" stroke="none" 
	d="
M365.309052,299.212067 
	C359.015808,296.438232 353.033173,293.493805 346.390137,290.224365 
	C351.583130,284.091339 350.119507,274.670959 359.913116,272.863251 
	C361.930695,279.792511 364.070953,286.744263 365.914307,293.773865 
	C366.338806,295.392670 365.744934,297.278503 365.309052,299.212067 
z"/>
<path fill="#F5F9F6" opacity="1.000000" stroke="none" 
	d="
M375.051758,227.953049 
	C374.703705,227.886551 374.468597,227.715637 374.233459,227.544724 
	C374.511139,227.456726 374.788788,227.368729 375.229187,227.461090 
	C375.391937,227.641449 375.164673,227.848648 375.051758,227.953049 
z"/>
</svg>